{"glyphs":{"0":{"ha":889,"x_min":0,"x_max":0,"o":"m 179 851 b 444 983 242 939 329 983 b 710 851 560 983 647 939 b 803 486 772 764 803 643 b 710 119 803 329 772 207 b 444 -11 647 32 560 -11 b 179 119 329 -11 242 32 b 86 486 117 207 86 329 b 179 851 86 643 117 764 m 631 486 b 444 822 631 710 568 822 b 258 486 321 822 258 710 b 444 150 258 263 321 150 b 631 486 568 150 631 263 "},"1":{"ha":575,"x_min":0,"x_max":0,"o":"m 379 972 l 456 972 l 456 0 l 281 0 l 281 728 l 94 617 l 94 806 "},"2":{"ha":804,"x_min":0,"x_max":0,"o":"m 89 0 l 89 69 l 436 518 b 511 694 486 581 511 640 b 392 822 511 774 469 822 b 265 694 321 822 276 776 l 104 725 b 193 910 108 799 139 861 b 396 983 247 958 315 983 b 686 701 578 983 686 869 b 603 471 686 621 658 544 l 365 161 l 707 161 l 707 0 "},"3":{"ha":818,"x_min":0,"x_max":0,"o":"m 78 269 l 246 292 b 403 150 269 197 321 150 b 557 313 493 150 557 214 b 404 483 557 422 494 483 b 319 463 375 483 346 476 l 250 560 l 433 811 l 124 811 l 124 972 l 681 972 l 681 911 l 451 601 b 490 604 468 603 481 604 b 732 315 639 604 732 488 b 639 78 732 217 701 138 b 403 -11 576 18 499 -11 b 179 67 314 -11 239 15 b 78 269 119 119 86 188 "},"4":{"ha":854,"x_min":0,"x_max":0,"o":"m 500 0 l 500 181 l 82 181 l 82 269 l 492 972 l 675 972 l 675 342 l 783 342 l 783 181 l 675 181 l 675 0 m 294 342 l 500 342 l 500 713 "},"5":{"ha":810,"x_min":0,"x_max":0,"o":"m 100 254 l 265 285 b 411 150 283 194 332 150 b 556 322 506 150 556 211 b 403 490 556 432 501 490 b 231 403 340 490 282 461 l 121 425 l 175 972 l 675 972 l 675 811 l 318 811 l 296 608 b 433 644 336 632 382 644 b 731 322 629 644 731 521 b 643 81 731 224 701 143 b 411 -11 585 19 507 -11 b 199 61 328 -11 257 13 b 100 254 142 110 108 175 "},"6":{"ha":824,"x_min":0,"x_max":0,"o":"m 411 622 l 433 622 b 657 533 524 622 597 593 b 747 306 717 475 747 399 b 654 79 747 215 717 139 b 422 -11 592 19 515 -11 b 190 79 331 -11 253 19 b 97 306 128 139 97 215 b 144 476 97 365 113 422 l 428 983 l 622 983 m 272 306 b 422 150 272 213 339 150 b 572 306 507 150 572 213 b 422 461 572 401 510 461 b 272 306 335 461 272 401 "},"7":{"ha":690,"x_min":0,"x_max":0,"o":"m 657 972 l 657 900 l 290 0 l 118 0 l 450 811 l 68 811 l 68 972 "},"8":{"ha":825,"x_min":0,"x_max":0,"o":"m 692 718 b 600 524 692 636 661 572 b 729 290 686 475 729 397 b 636 71 729 199 699 125 b 413 -11 575 17 500 -11 b 188 71 325 -11 250 17 b 96 290 126 125 96 199 b 224 524 96 397 139 475 b 133 718 164 571 133 636 b 211 906 133 792 160 854 b 413 983 264 957 331 983 b 613 906 494 983 561 957 b 692 718 665 854 692 792 m 514 393 b 413 431 488 418 453 431 b 311 393 372 431 338 418 b 271 290 285 368 271 333 b 311 188 271 247 285 213 b 413 150 338 163 372 150 b 514 188 453 150 488 163 b 554 290 540 213 554 247 b 514 393 554 333 540 368 m 296 715 b 413 592 296 642 342 592 b 529 715 483 592 529 642 b 413 836 529 788 483 836 b 296 715 342 836 296 788 "},"9":{"ha":824,"x_min":0,"x_max":0,"o":"m 435 350 l 413 350 b 188 438 322 350 247 379 b 99 667 128 497 99 574 b 192 893 99 757 129 833 b 424 983 254 953 331 983 b 654 893 515 983 592 953 b 749 667 717 833 749 757 b 701 496 749 607 733 550 l 418 -11 l 224 -11 m 574 667 b 424 822 574 760 507 822 b 274 667 339 822 274 760 b 424 511 274 571 336 511 b 574 667 511 511 574 571 "}," ":{"ha":344,"x_min":0,"x_max":0,"o":""},"!":{"ha":500,"x_min":0,"x_max":0,"o":"m 140 972 l 368 972 l 329 336 l 179 336 m 139 106 b 254 222 139 171 192 222 b 369 106 317 222 369 171 b 254 -8 369 43 319 -8 b 139 106 189 -8 139 43 "},"\"":{"ha":682,"x_min":0,"x_max":0,"o":"m 154 638 l 111 983 l 307 983 l 264 638 m 418 638 l 375 983 l 571 983 l 528 638 "},"#":{"ha":1022,"x_min":0,"x_max":0,"o":"m 146 568 l 146 704 l 338 704 l 393 972 l 532 972 l 476 704 l 635 704 l 689 972 l 828 972 l 774 704 l 932 704 l 932 568 l 746 568 l 713 404 l 876 404 l 876 268 l 685 268 l 629 0 l 490 0 l 546 268 l 388 268 l 333 0 l 194 0 l 249 268 l 90 268 l 90 404 l 276 404 l 310 568 m 449 568 l 415 404 l 574 404 l 607 568 "},"$":{"ha":746,"x_min":0,"x_max":0,"o":"m 653 807 l 507 714 b 372 817 472 782 426 817 b 279 728 318 817 279 779 b 425 583 279 667 346 621 b 694 292 542 532 696 460 b 467 -3 694 132 607 26 l 467 -125 l 297 -125 l 297 0 b 49 261 168 32 75 135 l 194 353 b 388 156 232 221 296 156 b 514 282 472 156 514 197 b 369 418 514 339 451 383 b 107 719 254 467 104 540 b 297 974 107 842 182 942 l 297 1097 l 467 1097 l 467 971 b 653 807 551 947 613 892 "},"%":{"ha":1164,"x_min":0,"x_max":0,"o":"m 136 603 b 72 761 93 646 72 699 b 136 919 72 824 93 876 b 300 983 179 963 235 983 b 463 919 365 983 419 963 b 528 761 506 876 528 824 b 463 603 528 699 506 646 b 300 539 419 560 365 539 b 136 603 235 539 179 560 m 236 825 b 236 696 207 792 207 731 b 300 671 251 679 274 671 b 363 696 326 671 347 679 b 363 825 394 731 394 792 b 300 851 347 843 326 851 b 236 825 274 851 251 843 m 700 53 b 636 211 657 96 636 149 b 700 369 636 274 657 326 b 864 433 743 413 799 433 b 1026 369 929 433 983 413 b 1092 211 1069 326 1092 274 b 1026 53 1092 149 1069 96 b 864 -11 983 10 929 -11 b 700 53 799 -11 743 10 m 800 275 b 800 146 771 242 771 181 b 864 121 815 129 838 121 b 926 146 890 121 911 129 b 926 275 958 181 958 242 b 864 301 911 293 890 301 b 800 275 838 301 815 293 m 910 1025 l 1010 946 l 263 -53 l 163 28 "},"&":{"ha":967,"x_min":0,"x_max":0,"o":"m 400 -11 b 179 68 311 -11 238 15 b 92 286 121 122 92 194 b 276 586 92 421 169 525 b 210 776 232 649 210 711 b 272 924 210 835 231 883 b 436 983 314 964 368 983 b 600 925 504 983 560 964 b 661 789 640 888 661 842 b 503 542 661 679 593 590 l 663 332 b 733 507 689 381 713 439 l 833 390 b 761 203 817 319 793 257 l 917 0 l 713 0 l 656 75 b 400 -11 583 18 499 -11 m 401 149 b 560 203 463 149 515 167 l 364 464 b 258 289 293 421 258 363 b 401 149 258 210 317 149 m 436 836 b 363 765 393 836 363 808 b 407 658 363 731 378 696 b 506 771 472 688 506 725 b 436 836 506 810 476 836 "},"'":{"ha":418,"x_min":0,"x_max":0,"o":"m 154 638 l 111 983 l 307 983 l 264 638 "},"(":{"ha":417,"x_min":0,"x_max":0,"o":"m 235 1042 l 383 1042 b 256 486 299 886 256 701 b 286 176 256 363 265 260 b 383 -69 307 93 340 11 l 235 -69 b 163 74 204 -14 181 33 b 113 244 144 114 128 171 b 89 486 97 318 89 399 b 113 726 89 574 97 653 b 163 897 128 800 144 857 b 235 1042 181 938 204 986 "},")":{"ha":417,"x_min":0,"x_max":0,"o":"m 33 1042 l 182 1042 b 254 897 213 986 236 938 b 328 486 289 818 328 660 b 304 244 328 399 319 318 b 254 74 289 171 272 114 b 182 -69 236 33 213 -14 l 33 -69 b 129 176 76 11 108 93 b 161 486 150 260 161 363 b 33 1042 161 701 118 886 "},"*":{"ha":675,"x_min":0,"x_max":0,"o":"m 408 983 l 408 826 l 560 876 l 606 739 l 454 688 l 547 561 l 429 474 l 338 603 l 246 474 l 128 561 l 221 688 l 69 739 l 115 876 l 267 826 l 267 983 "},"+":{"ha":811,"x_min":0,"x_max":0,"o":"m 332 771 l 482 771 l 482 515 l 738 515 l 738 365 l 482 365 l 482 110 l 332 110 l 332 365 l 76 365 l 76 515 l 332 515 "},",":{"ha":504,"x_min":0,"x_max":0,"o":"m 79 -217 l 183 203 l 415 203 l 200 -217 "},"-":{"ha":699,"x_min":0,"x_max":0,"o":"m 90 365 l 90 515 l 608 515 l 608 365 "},".":{"ha":456,"x_min":0,"x_max":0,"o":"m 144 25 b 144 192 100 69 100 147 b 311 192 189 236 267 236 b 311 25 356 147 356 69 b 144 25 267 -19 189 -19 "},"/":{"ha":764,"x_min":0,"x_max":0,"o":"m 617 1042 l 783 1042 l 178 -69 l 11 -69 "},":":{"ha":469,"x_min":0,"x_max":0,"o":"m 147 25 b 147 192 103 69 103 147 b 314 192 192 236 269 236 b 314 25 358 147 358 69 b 147 25 269 -19 192 -19 m 147 511 b 147 678 103 556 103 633 b 314 678 192 722 269 722 b 314 511 358 633 358 556 b 147 511 269 467 192 467 "},";":{"ha":469,"x_min":0,"x_max":0,"o":"m 17 -217 l 121 203 l 353 203 l 138 -217 m 146 511 b 146 678 101 556 101 633 b 313 678 190 722 268 722 b 313 511 357 633 357 556 b 146 511 268 467 190 467 "},"<":{"ha":676,"x_min":0,"x_max":0,"o":"m 63 350 l 63 511 l 606 794 l 606 613 l 256 431 l 606 249 l 606 67 "},"=":{"ha":857,"x_min":0,"x_max":0,"o":"m 125 481 l 125 631 l 732 631 l 732 481 m 125 231 l 125 381 l 732 381 l 732 231 "},">":{"ha":676,"x_min":0,"x_max":0,"o":"m 614 511 l 614 350 l 71 67 l 71 249 l 421 431 l 71 613 l 71 794 "},"?":{"ha":639,"x_min":0,"x_max":0,"o":"m 522 439 b 321 296 490 350 419 296 b 129 474 208 296 129 368 b 279 654 129 556 179 617 b 418 769 386 694 418 724 b 328 839 418 815 382 839 b 210 746 268 839 228 808 l 58 771 b 324 983 81 893 179 983 b 581 764 479 983 581 897 b 535 643 581 713 565 672 b 389 561 506 614 457 588 b 271 469 296 524 271 507 b 321 421 271 440 293 421 b 400 485 358 421 385 442 m 206 106 b 321 222 206 171 258 222 b 436 106 383 222 436 171 b 321 -8 436 43 386 -8 b 206 106 256 -8 206 43 "},"@":{"ha":1258,"x_min":0,"x_max":0,"o":"m 343 411 b 424 628 343 496 369 568 b 643 717 478 688 551 717 b 788 664 700 717 747 699 l 803 707 l 918 707 l 890 403 b 888 363 889 376 888 364 b 942 292 888 315 906 292 b 1025 496 997 292 1025 360 b 654 856 1025 733 878 856 b 369 740 544 856 450 817 b 250 418 290 664 250 557 b 653 11 250 142 465 11 b 744 14 688 11 718 13 b 983 88 796 19 890 43 l 1038 -47 b 853 -111 972 -78 911 -99 b 653 -131 794 -124 728 -131 b 242 24 485 -131 347 -79 b 83 418 136 128 83 258 b 244 839 83 593 138 733 b 661 997 351 944 490 997 b 1053 857 831 997 961 950 b 1192 489 1146 764 1192 642 b 1118 243 1192 388 1167 306 b 928 150 1069 181 1007 150 b 776 246 857 150 799 192 b 590 150 725 182 663 150 b 343 411 436 150 343 256 m 503 404 b 603 292 503 329 536 292 b 749 458 686 292 749 364 b 636 575 749 532 708 575 b 503 404 564 575 503 508 "},"A":{"ha":853,"x_min":0,"x_max":0,"o":"m 651 0 l 581 229 l 272 229 l 201 0 l 7 0 l 336 972 l 517 972 l 846 0 m 426 733 l 324 396 l 529 396 "},"B":{"ha":867,"x_min":0,"x_max":0,"o":"m 125 972 l 481 972 b 758 710 651 972 758 882 b 663 531 758 631 724 563 b 808 293 760 490 808 411 b 488 0 808 106 688 0 l 125 0 m 306 806 l 306 594 l 471 594 b 585 700 547 594 585 624 b 467 806 585 776 546 806 m 306 428 l 306 167 l 471 167 b 628 297 575 167 628 210 b 471 428 628 385 575 428 "},"C":{"ha":972,"x_min":0,"x_max":0,"o":"m 929 689 l 767 647 b 526 817 724 760 644 817 b 328 732 447 817 381 789 b 250 486 276 675 250 593 b 328 240 250 379 276 297 b 526 156 381 183 447 156 b 767 325 644 156 724 213 l 929 283 b 526 -11 883 96 738 -11 b 200 121 397 -11 289 33 b 67 486 111 208 67 331 b 200 851 67 642 111 764 b 526 983 289 939 397 983 b 929 689 738 983 883 876 "},"D":{"ha":949,"x_min":0,"x_max":0,"o":"m 125 0 l 125 972 l 429 972 b 882 486 658 972 882 825 b 429 0 882 147 658 0 m 306 167 l 372 167 b 592 229 457 167 526 185 b 699 486 658 274 699 363 b 592 743 699 610 658 699 b 372 806 526 788 457 806 l 306 806 "},"E":{"ha":799,"x_min":0,"x_max":0,"o":"m 125 972 l 726 972 l 726 806 l 306 806 l 306 601 l 643 601 l 643 435 l 306 435 l 306 167 l 740 167 l 740 0 l 125 0 "},"F":{"ha":781,"x_min":0,"x_max":0,"o":"m 125 972 l 740 972 l 740 806 l 306 806 l 306 583 l 656 583 l 656 417 l 306 417 l 306 0 l 125 0 "},"G":{"ha":1017,"x_min":0,"x_max":0,"o":"m 767 0 l 751 104 b 515 -11 700 28 622 -11 b 197 119 390 -11 285 32 b 67 486 110 207 67 329 b 201 853 67 643 111 765 b 529 983 292 940 400 983 b 933 676 739 983 882 861 l 768 633 b 529 817 718 756 639 817 b 250 486 364 817 250 703 b 525 156 250 264 363 156 b 743 340 657 156 731 240 l 563 340 l 563 490 l 918 490 l 918 0 "},"H":{"ha":1000,"x_min":0,"x_max":0,"o":"m 125 0 l 125 972 l 306 972 l 306 603 l 694 603 l 694 972 l 875 972 l 875 0 l 694 0 l 694 436 l 306 436 l 306 0 "},"I":{"ha":431,"x_min":0,"x_max":0,"o":"m 306 972 l 306 0 l 125 0 l 125 972 "},"J":{"ha":715,"x_min":0,"x_max":0,"o":"m 3 240 l 181 278 b 303 156 196 196 238 156 b 432 322 386 156 432 200 l 432 972 l 613 972 l 613 342 b 303 -11 613 90 504 -11 b 3 240 135 -11 24 83 "},"K":{"ha":893,"x_min":0,"x_max":0,"o":"m 125 972 l 306 972 l 306 611 l 638 972 l 860 972 l 465 538 l 888 0 l 658 0 l 306 464 l 306 0 l 125 0 "},"L":{"ha":738,"x_min":0,"x_max":0,"o":"m 125 972 l 306 972 l 306 167 l 718 167 l 718 0 l 125 0 "},"M":{"ha":1114,"x_min":0,"x_max":0,"o":"m 125 0 l 125 972 l 328 972 l 557 365 l 786 972 l 989 972 l 989 0 l 808 0 l 808 600 l 622 89 l 492 89 l 306 600 l 306 0 "},"N":{"ha":978,"x_min":0,"x_max":0,"o":"m 672 972 l 853 972 l 853 0 l 663 0 l 306 642 l 306 0 l 125 0 l 125 972 l 315 972 l 672 331 "},"O":{"ha":1050,"x_min":0,"x_max":0,"o":"m 297 931 b 525 983 365 965 440 983 b 918 764 693 983 833 918 b 983 486 961 688 983 594 b 753 40 983 269 888 111 b 525 -11 685 6 610 -11 b 131 208 357 -11 218 54 b 67 486 88 285 67 378 b 297 931 67 703 163 863 m 721 733 b 525 817 669 789 604 817 b 328 733 446 817 381 789 b 250 486 276 678 250 596 b 328 239 250 376 276 294 b 525 156 381 183 446 156 b 721 239 604 156 669 183 b 800 486 774 294 800 376 b 721 733 800 596 774 678 "},"P":{"ha":822,"x_min":0,"x_max":0,"o":"m 306 381 l 306 0 l 125 0 l 125 972 l 492 972 b 796 676 690 972 796 854 b 492 381 796 499 690 381 m 485 547 b 613 676 569 547 613 590 b 485 806 613 763 569 806 l 306 806 l 306 547 "},"Q":{"ha":1050,"x_min":0,"x_max":0,"o":"m 983 486 b 918 206 983 376 961 282 l 1011 114 l 885 -11 l 800 72 b 525 -11 724 17 632 -11 b 131 208 357 -11 218 54 b 67 486 88 285 67 378 b 131 764 67 594 88 688 b 525 983 218 918 357 983 b 753 931 610 983 685 965 b 983 486 888 863 983 703 m 547 325 l 674 450 l 779 343 b 800 486 793 383 800 431 b 721 733 800 596 774 678 b 525 817 669 789 604 817 b 328 733 446 817 381 789 b 250 486 276 678 250 596 b 328 239 250 376 276 294 b 525 156 381 183 446 156 b 674 197 581 156 631 169 "},"R":{"ha":907,"x_min":0,"x_max":0,"o":"m 775 696 b 593 435 775 567 710 469 l 863 0 l 661 0 l 400 419 l 306 419 l 306 0 l 125 0 l 125 972 l 479 972 b 775 696 668 972 775 863 m 481 586 b 594 696 557 586 594 622 b 481 806 594 769 557 806 l 306 806 l 306 586 "},"S":{"ha":746,"x_min":0,"x_max":0,"o":"m 653 807 l 507 714 b 372 817 472 782 426 817 b 279 728 318 817 279 779 b 425 583 279 667 346 621 b 694 292 542 532 696 460 b 383 -11 694 103 572 -11 b 164 67 299 -11 225 15 b 49 261 103 119 64 185 l 194 353 b 388 156 232 221 296 156 b 514 282 472 156 514 197 b 369 418 514 339 451 383 b 107 719 254 467 104 540 b 182 907 107 793 132 856 b 372 983 233 958 296 983 b 653 807 504 983 597 925 "},"T":{"ha":742,"x_min":0,"x_max":0,"o":"m 11 806 l 11 972 l 731 972 l 731 806 l 461 806 l 461 0 l 281 0 l 281 806 "},"U":{"ha":911,"x_min":0,"x_max":0,"o":"m 818 972 l 818 369 b 456 -11 818 118 678 -11 b 93 369 233 -11 93 118 l 93 972 l 274 972 l 274 367 b 456 156 274 226 335 156 b 638 367 576 156 638 226 l 638 972 "},"V":{"ha":839,"x_min":0,"x_max":0,"o":"m 511 0 l 328 0 l 1 972 l 201 972 l 419 253 l 638 972 l 838 972 "},"W":{"ha":1278,"x_min":0,"x_max":0,"o":"m 1061 972 l 1253 972 l 999 0 l 815 0 l 639 572 l 463 0 l 279 0 l 25 972 l 217 972 l 379 257 l 561 869 l 717 869 l 899 257 "},"X":{"ha":822,"x_min":0,"x_max":0,"o":"m 569 972 l 767 972 l 510 525 l 813 0 l 613 0 l 411 351 l 210 0 l 10 0 l 313 525 l 56 972 l 253 972 l 411 697 "},"Y":{"ha":742,"x_min":0,"x_max":0,"o":"m 0 972 l 194 972 l 371 594 l 547 972 l 742 972 l 461 414 l 461 0 l 281 0 l 281 414 "},"Z":{"ha":775,"x_min":0,"x_max":0,"o":"m 65 806 l 65 972 l 710 972 l 710 889 l 293 167 l 729 167 l 729 0 l 42 0 l 42 83 l 463 806 "},"[":{"ha":489,"x_min":0,"x_max":0,"o":"m 125 -69 l 125 1042 l 444 1042 l 444 892 l 292 892 l 292 81 l 444 81 l 444 -69 "},"\\":{"ha":764,"x_min":0,"x_max":0,"o":"m -19 1042 l 147 1042 l 753 -69 l 586 -69 "},"]":{"ha":489,"x_min":0,"x_max":0,"o":"m 364 1042 l 364 -69 l 44 -69 l 44 81 l 197 81 l 197 892 l 44 892 l 44 1042 "},"^":{"ha":832,"x_min":0,"x_max":0,"o":"m 342 972 l 490 972 l 761 560 l 594 560 l 417 822 l 238 560 l 71 560 "},"_":{"ha":701,"x_min":0,"x_max":0,"o":"m 35 -150 l 35 0 l 667 0 l 667 -150 "},"`":{"ha":361,"x_min":0,"x_max":0,"o":"m 251 983 l 340 778 l 208 778 l 18 983 "},"a":{"ha":714,"x_min":0,"x_max":0,"o":"m 79 517 b 346 711 101 633 206 711 b 640 418 542 711 640 614 l 640 0 l 499 0 l 481 89 b 265 -11 426 22 354 -11 b 53 201 142 -11 53 67 b 351 431 53 340 174 431 l 468 431 l 468 461 b 346 564 468 529 428 564 b 225 483 283 564 243 538 m 233 204 b 306 136 233 167 260 136 b 418 176 349 136 386 150 b 468 281 451 203 468 238 l 468 294 l 353 294 b 233 204 274 294 233 264 "},"b":{"ha":832,"x_min":0,"x_max":0,"o":"m 453 -11 b 283 72 374 -11 306 32 l 283 0 l 111 0 l 111 983 l 283 983 l 283 636 b 453 711 315 676 385 711 b 772 350 658 711 772 571 b 453 -11 772 129 658 -11 m 546 193 b 592 350 576 231 592 283 b 546 507 592 417 576 469 b 429 564 515 544 476 564 b 313 507 382 564 343 544 b 268 350 283 469 268 418 b 313 192 268 282 283 229 b 429 136 343 154 382 136 b 546 193 476 136 515 156 "},"c":{"ha":765,"x_min":0,"x_max":0,"o":"m 565 251 l 719 189 b 401 -11 665 56 560 -11 b 149 92 292 -11 208 24 b 60 350 89 160 60 246 b 149 608 60 454 89 540 b 401 711 208 676 292 711 b 719 511 560 711 665 644 l 565 449 b 401 564 528 525 472 564 b 240 350 296 564 240 478 b 401 136 240 222 296 136 b 565 251 472 136 528 175 "},"d":{"ha":832,"x_min":0,"x_max":0,"o":"m 379 711 b 549 636 447 711 517 676 l 549 983 l 721 983 l 721 0 l 549 0 l 549 72 b 379 -11 526 32 458 -11 b 60 350 174 -11 60 129 b 379 711 60 571 174 711 m 286 507 b 240 350 256 469 240 417 b 286 193 240 283 256 231 b 403 136 317 156 356 136 b 518 192 450 136 489 154 b 564 350 549 229 564 282 b 518 507 564 418 549 469 b 403 564 489 544 450 564 b 286 507 356 564 317 544 "},"e":{"ha":772,"x_min":0,"x_max":0,"o":"m 722 294 l 240 294 b 406 136 244 210 306 136 b 575 244 476 136 533 172 l 714 193 b 396 -11 654 57 549 -11 b 60 350 156 -11 60 183 b 396 711 60 517 156 711 b 647 594 507 711 597 665 b 722 365 697 526 722 444 m 396 564 b 244 431 314 564 257 504 l 546 431 b 396 564 526 519 476 564 "},"f":{"ha":511,"x_min":0,"x_max":0,"o":"m 44 553 l 44 700 l 133 700 l 133 736 b 375 983 133 901 225 983 b 506 956 428 983 471 974 l 468 817 b 385 836 438 829 410 836 b 306 749 332 836 306 807 l 306 700 l 453 700 l 453 553 l 306 553 l 306 0 l 133 0 l 133 553 "},"g":{"ha":715,"x_min":0,"x_max":0,"o":"m 113 475 b 186 646 113 546 138 603 b 369 711 235 689 296 711 b 499 681 415 711 458 701 l 631 750 l 699 636 l 599 586 b 626 475 617 554 626 517 b 553 304 626 404 601 347 b 369 242 504 263 443 242 b 268 257 335 242 300 247 b 235 204 246 244 235 226 b 300 153 235 169 257 153 l 443 153 b 689 -53 593 153 689 79 b 640 -190 689 -107 672 -153 b 371 -294 575 -267 482 -294 b 142 -235 278 -294 201 -275 b 54 -64 83 -194 54 -137 b 111 75 54 -7 74 40 b 75 183 88 104 75 140 b 161 331 75 247 104 296 b 113 475 129 371 113 418 m 310 8 b 229 14 278 8 251 10 b 214 -50 219 -1 214 -22 b 371 -150 214 -115 276 -150 b 517 -64 468 -150 517 -121 b 404 8 517 -15 479 8 m 274 475 b 369 381 274 419 314 381 b 465 475 425 381 465 419 b 369 572 465 532 425 572 b 274 475 314 572 274 532 "},"h":{"ha":824,"x_min":0,"x_max":0,"o":"m 111 983 l 283 983 l 283 588 b 506 711 335 669 410 711 b 724 500 640 711 724 639 l 724 0 l 551 0 l 551 439 b 447 564 551 522 517 564 b 283 296 358 564 283 472 l 283 0 l 111 0 "},"i":{"ha":361,"x_min":0,"x_max":0,"o":"m 101 822 b 101 981 58 865 58 938 b 260 981 144 1024 217 1024 b 260 822 303 938 303 865 b 101 822 217 779 144 779 m 94 700 l 267 700 l 267 0 l 94 0 "},"j":{"ha":361,"x_min":0,"x_max":0,"o":"m 94 700 l 267 700 l 267 81 b -26 -294 267 -137 174 -249 l -68 -143 b 94 60 42 -115 94 -64 m 101 822 b 101 981 58 865 58 938 b 260 981 144 1024 217 1024 b 260 822 303 938 303 865 b 101 822 217 779 144 779 "},"k":{"ha":746,"x_min":0,"x_max":0,"o":"m 111 983 l 283 983 l 283 425 l 511 700 l 724 700 l 443 378 l 742 0 l 531 0 l 283 331 l 283 0 l 111 0 "},"l":{"ha":386,"x_min":0,"x_max":0,"o":"m 108 983 l 281 983 l 281 0 l 108 0 "},"m":{"ha":1203,"x_min":0,"x_max":0,"o":"m 693 0 l 521 0 l 521 467 b 435 564 521 532 492 564 b 283 257 346 564 283 457 l 283 0 l 111 0 l 111 700 l 283 700 l 283 588 b 485 711 338 669 406 711 b 681 567 575 711 651 663 b 894 711 735 663 806 711 b 1103 496 1024 711 1103 631 l 1103 0 l 931 0 l 931 467 b 844 564 931 532 901 564 b 693 272 756 564 693 461 "},"n":{"ha":815,"x_min":0,"x_max":0,"o":"m 111 700 l 283 700 l 283 588 b 500 711 340 669 413 711 b 715 500 629 711 715 638 l 715 0 l 543 0 l 543 449 b 443 564 543 525 510 564 b 283 279 354 564 283 456 l 283 0 l 111 0 "},"o":{"ha":831,"x_min":0,"x_max":0,"o":"m 156 90 b 60 350 92 158 60 246 b 156 608 60 454 92 540 b 415 711 219 676 306 711 b 675 608 525 711 611 676 b 771 350 739 540 771 454 b 675 90 771 246 739 158 b 415 -11 611 22 525 -11 b 156 90 306 -11 219 22 m 288 501 b 240 350 256 461 240 410 b 288 197 240 290 256 239 b 415 136 319 157 361 136 b 543 197 469 136 511 157 b 590 350 575 239 590 290 b 543 501 590 410 575 461 b 415 564 511 543 469 564 b 288 501 361 564 319 543 "},"p":{"ha":832,"x_min":0,"x_max":0,"o":"m 453 -11 b 283 64 385 -11 315 24 l 283 -283 l 111 -283 l 111 700 l 283 700 l 283 628 b 453 711 306 668 374 711 b 772 350 658 711 772 571 b 453 -11 772 129 658 -11 m 546 193 b 592 350 576 231 592 283 b 546 507 592 417 576 469 b 429 564 515 544 476 564 b 313 507 382 564 343 544 b 268 350 283 469 268 418 b 313 192 268 282 283 229 b 429 136 343 154 382 136 b 546 193 476 136 515 156 "},"q":{"ha":832,"x_min":0,"x_max":0,"o":"m 379 711 b 549 628 458 711 526 668 l 549 700 l 721 700 l 721 -283 l 549 -283 l 549 64 b 379 -11 517 24 447 -11 b 60 350 174 -11 60 129 b 379 711 60 571 174 711 m 286 507 b 240 350 256 469 240 417 b 286 193 240 283 256 231 b 403 136 317 156 356 136 b 518 192 450 136 489 154 b 564 350 549 229 564 282 b 518 507 564 418 549 469 b 403 564 489 544 450 564 b 286 507 356 564 317 544 "},"r":{"ha":586,"x_min":0,"x_max":0,"o":"m 283 0 l 111 0 l 111 700 l 283 700 l 283 586 b 490 711 333 665 408 711 b 575 697 517 711 544 707 l 543 538 b 471 557 522 550 497 557 b 283 249 361 557 283 461 "},"s":{"ha":633,"x_min":0,"x_max":0,"o":"m 321 711 b 540 597 414 711 496 665 l 438 503 b 321 564 406 543 367 564 b 257 506 286 564 257 543 b 324 438 257 476 279 454 l 374 419 l 433 399 b 483 372 444 394 461 385 b 533 336 507 360 524 349 b 576 222 554 313 576 271 b 507 57 576 157 553 103 b 328 -11 461 11 401 -11 b 154 46 261 -11 203 8 b 50 178 106 83 71 128 l 188 251 b 328 136 215 175 263 136 b 414 211 385 136 414 161 b 376 264 414 233 403 251 b 338 281 364 271 350 276 b 239 318 314 292 265 307 b 97 507 150 356 97 407 b 160 651 97 564 118 611 b 321 711 201 692 256 711 "},"t":{"ha":544,"x_min":0,"x_max":0,"o":"m 464 153 l 504 14 b 390 -11 468 -3 431 -11 b 133 247 229 -11 133 76 l 133 553 l 25 553 l 25 700 l 133 700 l 133 875 l 306 983 l 306 700 l 490 700 l 490 553 l 306 553 l 306 250 b 397 136 306 167 336 136 b 464 153 421 136 443 142 "},"u":{"ha":815,"x_min":0,"x_max":0,"o":"m 704 0 l 532 0 l 532 113 b 315 -11 475 31 403 -11 b 100 200 186 -11 100 63 l 100 700 l 272 700 l 272 251 b 372 136 272 175 306 136 b 532 421 461 136 532 244 l 532 700 l 704 700 "},"v":{"ha":644,"x_min":0,"x_max":0,"o":"m 7 700 l 181 700 l 322 213 l 464 700 l 638 700 l 400 0 l 244 0 "},"w":{"ha":1064,"x_min":0,"x_max":0,"o":"m 856 700 l 1029 700 l 806 0 l 653 0 l 532 453 l 411 0 l 258 0 l 35 700 l 208 700 l 333 219 l 451 700 l 613 700 l 731 219 "},"x":{"ha":669,"x_min":0,"x_max":0,"o":"m 449 700 l 629 700 l 426 374 l 658 0 l 478 0 l 335 228 l 192 0 l 11 0 l 243 374 l 40 700 l 221 700 l 335 518 "},"y":{"ha":668,"x_min":0,"x_max":0,"o":"m 4 700 l 178 700 l 340 261 l 493 700 l 665 700 l 304 -283 l 138 -283 l 258 44 "},"z":{"ha":646,"x_min":0,"x_max":0,"o":"m 79 553 l 79 700 l 574 700 l 574 633 l 274 147 l 593 147 l 593 0 l 57 0 l 57 67 l 360 553 "},"{":{"ha":481,"x_min":0,"x_max":0,"o":"m 189 69 l 189 300 b 78 411 189 385 161 411 l 78 561 b 189 672 161 561 189 588 l 189 903 b 328 1042 189 986 244 1042 l 450 1042 l 450 892 l 413 892 b 356 829 368 892 356 878 l 356 622 b 253 486 356 522 319 496 b 356 350 319 476 356 450 l 356 143 b 413 81 356 94 368 81 l 450 81 l 450 -69 l 328 -69 b 189 69 244 -69 189 -14 "},"|":{"ha":419,"x_min":0,"x_max":0,"o":"m 125 1042 l 294 1042 l 294 -69 l 125 -69 "},"}":{"ha":481,"x_min":0,"x_max":0,"o":"m 292 300 l 292 69 b 153 -69 292 -14 236 -69 l 31 -69 l 31 81 l 68 81 b 125 143 113 81 125 94 l 125 350 b 228 486 125 450 161 476 b 125 622 161 496 125 522 l 125 829 b 68 892 125 878 113 892 l 31 892 l 31 1042 l 153 1042 b 292 903 236 1042 292 986 l 292 672 b 403 561 292 588 319 561 l 403 411 b 292 300 319 411 292 385 "},"~":{"ha":908,"x_min":0,"x_max":0,"o":"m 192 346 l 103 442 b 313 596 138 526 222 596 b 460 554 354 596 403 582 b 590 514 517 528 560 514 b 717 585 638 514 679 538 l 806 489 b 596 335 771 404 686 335 b 449 375 554 335 506 349 b 318 417 392 403 349 417 b 192 346 271 417 229 393 "}," ":{"ha":344,"x_min":0,"x_max":0,"o":""},"¡":{"ha":500,"x_min":0,"x_max":0,"o":"m 360 -283 l 132 -283 l 171 353 l 321 353 m 131 583 b 246 697 131 646 181 697 b 361 583 311 697 361 646 b 246 467 361 518 308 467 b 131 583 183 467 131 518 "},"¢":{"ha":810,"x_min":0,"x_max":0,"o":"m 581 388 l 735 325 b 501 133 692 218 614 154 l 501 -69 l 332 -69 l 332 133 b 75 486 165 168 75 308 b 332 839 75 664 165 804 l 332 1042 l 501 1042 l 501 839 b 735 647 614 818 692 754 l 581 585 b 417 700 543 661 488 700 b 256 486 311 700 256 614 b 417 272 256 358 311 272 b 581 388 488 272 543 311 "},"£":{"ha":774,"x_min":0,"x_max":0,"o":"m 74 425 l 74 586 l 140 586 b 118 694 125 629 118 665 b 199 901 118 778 144 847 b 414 983 253 956 325 983 b 701 792 558 983 658 913 l 558 724 b 414 822 528 789 479 822 b 290 685 346 822 290 778 b 301 586 290 647 294 614 l 542 586 l 542 425 l 350 425 b 354 372 353 408 354 390 b 242 146 354 267 314 207 b 379 190 290 175 336 190 b 456 169 403 190 428 183 b 529 149 483 156 508 149 b 629 226 567 149 594 165 l 749 151 b 519 -11 686 40 615 -11 b 408 14 485 -11 449 -3 b 308 40 368 32 335 40 b 147 -11 260 40 207 24 l 51 94 l 126 168 b 201 340 161 207 201 275 b 189 425 201 365 197 393 "},"¤":{"ha":792,"x_min":0,"x_max":0,"o":"m 28 193 l 151 289 b 151 564 106 372 106 481 l 28 660 l 163 794 l 258 671 b 533 671 340 719 451 719 l 629 794 l 764 660 l 640 564 b 640 289 686 481 686 372 l 764 193 l 629 58 l 533 182 b 258 182 451 133 340 133 l 163 58 m 313 515 b 283 426 293 493 283 464 b 313 336 283 389 293 360 b 396 303 333 314 361 303 b 478 336 431 303 458 314 b 508 426 499 360 508 389 b 478 515 508 464 499 493 b 396 550 458 539 431 550 b 313 515 361 550 333 539 "},"¥":{"ha":747,"x_min":0,"x_max":0,"o":"m 11 972 l 206 972 l 374 594 l 542 972 l 736 972 l 536 564 l 663 564 l 663 414 l 464 414 l 464 314 l 663 314 l 663 164 l 464 164 l 464 0 l 283 0 l 283 164 l 85 164 l 85 314 l 283 314 l 283 414 l 85 414 l 85 564 l 211 564 "},"¦":{"ha":419,"x_min":0,"x_max":0,"o":"m 125 415 l 294 415 l 294 -69 l 125 -69 m 294 557 l 125 557 l 125 1042 l 294 1042 "},"§":{"ha":763,"x_min":0,"x_max":0,"o":"m 681 308 b 599 115 681 226 653 163 b 633 -24 622 75 633 29 b 560 -219 633 -104 608 -169 b 382 -294 511 -269 451 -294 b 104 -85 233 -294 142 -225 l 257 -35 b 382 -133 281 -100 322 -133 b 467 -33 433 -133 467 -99 b 418 61 467 7 447 35 b 339 110 403 76 361 99 l 286 136 l 229 165 b 83 381 132 214 83 286 b 165 574 83 463 111 526 b 131 713 142 614 131 660 b 204 908 131 793 156 858 b 382 983 253 958 313 983 b 660 774 531 983 622 914 l 507 724 b 382 822 483 789 442 822 b 297 722 331 822 297 788 b 344 628 297 682 318 654 b 424 579 361 613 403 590 l 478 551 b 535 524 503 539 522 531 b 681 308 632 475 681 403 m 531 296 b 474 379 531 328 513 356 b 417 410 454 392 435 401 b 275 478 382 428 310 460 b 233 393 247 457 233 428 b 290 310 233 361 251 333 b 346 278 310 297 328 288 l 418 244 b 489 211 447 232 471 221 b 531 296 517 233 531 261 "},"¨":{"ha":529,"x_min":0,"x_max":0,"o":"m 50 833 b 50 975 13 871 13 938 b 192 975 88 1013 154 1013 b 192 833 229 938 229 871 b 50 833 154 796 88 796 m 338 833 b 338 975 300 871 300 938 b 479 975 375 1013 442 1013 b 479 833 517 938 517 871 b 338 833 442 796 375 796 "},"©":{"ha":1236,"x_min":0,"x_max":0,"o":"m 236 100 b 83 486 135 204 83 332 b 236 872 83 640 135 768 b 618 1028 339 976 467 1028 b 999 872 769 1028 897 976 b 1153 486 1101 768 1153 640 b 999 100 1153 332 1101 204 b 618 -56 897 -4 769 -56 b 236 100 467 -56 339 -4 m 343 769 b 236 486 272 696 236 601 b 343 203 236 371 272 276 b 618 92 414 129 506 92 b 893 203 731 92 822 129 b 1000 486 964 276 1000 371 b 893 769 1000 601 964 696 b 618 881 822 843 731 881 b 343 769 506 881 414 843 m 875 382 b 789 238 865 319 838 272 b 618 186 740 203 683 186 b 419 265 540 186 474 213 b 339 486 365 318 339 392 b 419 707 339 581 365 654 b 618 786 474 760 540 786 b 789 735 683 786 740 769 b 875 590 838 700 865 653 l 740 564 b 618 654 721 624 681 654 b 492 486 544 654 492 585 b 618 318 492 388 544 318 b 740 408 681 318 721 349 "},"ª":{"ha":624,"x_min":0,"x_max":0,"o":"m 101 825 b 311 978 118 915 200 978 b 542 747 465 978 542 901 l 542 417 l 429 417 l 417 489 b 247 411 372 438 315 411 b 81 578 153 411 81 474 b 315 758 81 688 176 758 l 407 758 l 407 782 b 311 863 407 836 375 863 b 215 799 263 863 231 842 m 222 578 b 279 526 222 549 242 526 b 407 640 346 526 407 574 l 407 656 l 315 656 b 222 578 258 656 222 626 "},"«":{"ha":976,"x_min":0,"x_max":0,"o":"m 61 374 l 61 488 l 490 790 l 490 613 l 233 431 l 490 249 l 490 71 m 478 374 l 478 488 l 907 790 l 907 613 l 650 431 l 907 249 l 907 71 "},"¬":{"ha":828,"x_min":0,"x_max":0,"o":"m 83 410 l 83 565 l 731 565 l 731 197 l 558 197 l 558 410 "},"­":{"ha":699,"x_min":0,"x_max":0,"o":"m 90 365 l 90 515 l 608 515 l 608 365 "},"®":{"ha":1236,"x_min":0,"x_max":0,"o":"m 236 100 b 83 486 135 204 83 332 b 236 872 83 640 135 768 b 618 1028 339 976 467 1028 b 999 872 769 1028 897 976 b 1153 486 1101 768 1153 640 b 999 100 1153 332 1101 204 b 618 -56 897 -4 769 -56 b 236 100 467 -56 339 -4 m 343 769 b 236 486 272 696 236 601 b 343 203 236 371 272 276 b 618 92 414 129 506 92 b 893 203 731 92 822 129 b 1000 486 964 276 1000 371 b 893 769 1000 601 964 696 b 618 881 822 843 731 881 b 343 769 506 881 414 843 m 715 190 l 564 443 l 547 443 l 547 190 l 401 190 l 401 782 l 636 782 b 831 613 765 782 831 725 b 710 450 831 519 783 465 l 872 190 m 547 667 l 547 558 l 622 558 b 689 613 667 558 689 576 b 622 667 689 649 667 667 "},"¯":{"ha":399,"x_min":0,"x_max":0,"o":"m 13 858 l 13 1011 l 386 1011 l 386 858 "},"°":{"ha":506,"x_min":0,"x_max":0,"o":"m 132 703 b 83 824 100 735 83 775 b 132 943 83 872 100 911 b 253 992 164 975 204 992 b 374 943 301 992 342 975 b 422 824 406 911 422 872 b 374 703 422 775 406 735 b 253 656 342 671 301 656 b 132 703 204 656 164 671 m 213 864 b 213 783 194 843 194 804 b 292 783 233 763 274 763 b 292 864 313 804 313 843 b 213 864 274 885 233 885 "},"±":{"ha":821,"x_min":0,"x_max":0,"o":"m 336 885 l 486 885 l 486 629 l 742 629 l 742 479 l 486 479 l 486 224 l 336 224 l 336 479 l 81 479 l 81 629 l 336 629 m 81 0 l 81 150 l 742 150 l 742 0 "},"²":{"ha":526,"x_min":0,"x_max":0,"o":"m 74 417 l 74 465 l 275 711 b 313 806 300 740 313 772 b 260 863 313 843 292 863 b 189 789 222 863 199 838 l 78 821 b 260 978 89 914 164 978 b 442 808 369 978 442 913 b 386 671 442 763 424 717 l 272 532 l 450 532 l 450 417 "},"³":{"ha":539,"x_min":0,"x_max":0,"o":"m 74 586 l 185 600 b 265 526 194 551 226 526 b 333 608 311 526 333 554 b 267 682 333 657 307 682 b 215 668 250 682 233 678 l 160 738 l 251 857 l 99 857 l 99 972 l 428 972 l 428 924 l 304 765 b 463 604 394 765 463 693 b 268 411 463 486 396 411 b 74 586 157 411 79 486 "},"´":{"ha":361,"x_min":0,"x_max":0,"o":"m 21 778 l 110 983 l 343 983 l 153 778 "},"µ":{"ha":815,"x_min":0,"x_max":0,"o":"m 704 0 l 532 0 l 532 113 b 315 -11 475 31 403 -11 b 272 -7 300 -11 286 -10 l 272 -283 l 100 -283 l 100 700 l 272 700 l 272 251 b 372 136 272 175 306 136 b 532 421 461 136 532 244 l 532 700 l 704 700 "},"¶":{"ha":1033,"x_min":0,"x_max":0,"o":"m 390 972 l 950 972 l 950 822 l 864 822 l 864 -283 l 697 -283 l 697 822 l 557 822 l 557 -283 l 390 -283 l 390 342 b 167 433 303 342 229 372 b 75 657 106 496 75 569 b 167 879 75 744 106 818 b 390 972 229 942 303 972 "},"·":{"ha":456,"x_min":0,"x_max":0,"o":"m 144 428 b 144 594 100 472 100 550 b 311 594 189 639 267 639 b 311 428 356 550 356 472 b 144 428 267 383 189 383 "},"¸":{"ha":335,"x_min":0,"x_max":0,"o":"m 328 -83 l 213 -369 l 7 -278 l 203 -83 "},"¹":{"ha":425,"x_min":0,"x_max":0,"o":"m 263 972 l 314 972 l 314 417 l 190 417 l 190 803 l 72 750 l 72 882 "},"º":{"ha":725,"x_min":0,"x_max":0,"o":"m 158 490 b 83 694 108 544 83 613 b 158 897 83 776 108 844 b 363 978 208 951 276 978 b 567 897 449 978 517 951 b 642 694 617 844 642 776 b 567 490 642 613 617 544 b 363 411 517 438 449 411 b 158 490 276 411 208 438 m 261 814 b 225 694 238 782 225 742 b 261 575 225 647 238 607 b 363 526 286 543 319 526 b 463 575 406 526 439 543 b 500 694 488 607 500 647 b 463 814 500 742 488 782 b 363 863 439 846 406 863 b 261 814 319 863 286 846 "},"»":{"ha":976,"x_min":0,"x_max":0,"o":"m 915 488 l 915 374 l 486 71 l 486 249 l 743 431 l 486 613 l 486 790 m 499 488 l 499 374 l 69 71 l 69 249 l 326 431 l 69 613 l 69 790 "},"¼":{"ha":1199,"x_min":0,"x_max":0,"o":"m 929 1025 l 1029 946 l 282 -53 l 182 28 m 288 972 l 339 972 l 339 417 l 215 417 l 215 803 l 97 750 l 97 882 m 904 0 l 904 90 l 672 90 l 672 153 l 896 556 l 1028 556 l 1028 206 l 1088 206 l 1088 90 l 1028 90 l 1028 0 m 817 206 l 904 206 l 904 375 "},"½":{"ha":1275,"x_min":0,"x_max":0,"o":"m 929 1025 l 1029 946 l 282 -53 l 182 28 m 288 972 l 339 972 l 339 417 l 215 417 l 215 803 l 97 750 l 97 882 m 788 0 l 788 49 l 989 294 b 1026 389 1014 324 1026 356 b 974 446 1026 426 1006 446 b 903 372 936 446 913 421 l 792 404 b 974 561 803 497 878 561 b 1156 392 1083 561 1156 496 b 1100 254 1156 346 1138 300 l 986 115 l 1164 115 l 1164 0 "},"¾":{"ha":1168,"x_min":0,"x_max":0,"o":"m 960 1025 l 1060 946 l 313 -53 l 213 28 m 185 600 b 265 526 194 551 226 526 b 333 608 311 526 333 554 b 267 682 333 657 307 682 b 215 668 250 682 233 678 l 160 738 l 251 857 l 99 857 l 99 972 l 428 972 l 428 924 l 304 765 b 463 604 394 765 463 693 b 268 411 463 486 396 411 b 74 586 157 411 79 486 m 908 0 l 908 90 l 676 90 l 676 153 l 900 556 l 1032 556 l 1032 206 l 1092 206 l 1092 90 l 1032 90 l 1032 0 m 821 206 l 908 206 l 908 375 "},"¿":{"ha":656,"x_min":0,"x_max":0,"o":"m 125 250 b 326 393 157 339 228 393 b 518 215 439 393 518 321 b 368 35 518 133 468 72 b 229 -81 261 -6 229 -35 b 319 -150 229 -126 265 -150 b 438 -57 379 -150 419 -119 l 589 -82 b 324 -294 567 -204 468 -294 b 67 -75 168 -294 67 -208 b 111 46 67 -24 82 17 b 258 128 142 75 190 101 b 376 219 351 165 376 182 b 326 268 376 249 354 268 b 247 204 289 268 263 247 m 442 583 b 326 467 442 518 389 467 b 211 583 264 467 211 518 b 326 697 211 646 261 697 b 442 583 392 697 442 646 "},"À":{"ha":853,"x_min":0,"x_max":0,"o":"m 651 0 l 581 229 l 272 229 l 201 0 l 7 0 l 336 972 l 517 972 l 846 0 m 426 733 l 324 396 l 529 396 m 442 1256 l 531 1050 l 399 1050 l 208 1256 "},"Á":{"ha":853,"x_min":0,"x_max":0,"o":"m 651 0 l 581 229 l 272 229 l 201 0 l 7 0 l 336 972 l 517 972 l 846 0 m 426 733 l 324 396 l 529 396 m 307 1050 l 396 1256 l 629 1256 l 439 1050 "},"Â":{"ha":853,"x_min":0,"x_max":0,"o":"m 651 0 l 581 229 l 272 229 l 201 0 l 7 0 l 336 972 l 517 972 l 846 0 m 426 733 l 324 396 l 529 396 m 165 1058 l 403 1317 l 450 1317 l 688 1058 l 521 1058 l 426 1161 l 332 1058 "},"Ã":{"ha":853,"x_min":0,"x_max":0,"o":"m 651 0 l 581 229 l 272 229 l 201 0 l 7 0 l 336 972 l 517 972 l 846 0 m 426 733 l 324 396 l 529 396 m 160 1139 b 331 1260 192 1211 260 1260 b 432 1231 363 1260 397 1250 b 515 1203 467 1213 494 1203 b 604 1263 546 1203 575 1222 l 694 1186 b 524 1065 663 1114 594 1065 b 422 1093 492 1065 457 1075 b 339 1122 388 1113 360 1122 b 250 1063 308 1122 279 1103 "},"Ä":{"ha":853,"x_min":0,"x_max":0,"o":"m 651 0 l 581 229 l 272 229 l 201 0 l 7 0 l 336 972 l 517 972 l 846 0 m 426 733 l 324 396 l 529 396 m 213 1106 b 213 1247 175 1143 175 1210 b 354 1247 250 1285 317 1285 b 354 1106 392 1210 392 1143 b 213 1106 317 1068 250 1068 m 500 1106 b 500 1247 463 1143 463 1210 b 642 1247 538 1285 604 1285 b 642 1106 679 1210 679 1143 b 500 1106 604 1068 538 1068 "},"Å":{"ha":853,"x_min":0,"x_max":0,"o":"m 651 0 l 581 229 l 272 229 l 201 0 l 7 0 l 336 972 l 517 972 l 846 0 m 426 733 l 324 396 l 529 396 m 324 1081 b 283 1182 297 1107 283 1142 b 324 1283 283 1222 297 1257 b 426 1324 350 1310 385 1324 b 529 1283 468 1324 503 1310 b 569 1182 556 1257 569 1222 b 529 1081 569 1142 556 1107 b 426 1040 503 1054 468 1040 b 324 1081 385 1040 350 1054 m 426 1226 b 385 1182 399 1226 385 1211 b 426 1138 385 1153 399 1138 b 468 1182 454 1138 468 1153 b 426 1226 468 1211 454 1226 "},"Æ":{"ha":1193,"x_min":0,"x_max":0,"o":"m 436 972 l 1121 972 l 1121 806 l 700 806 l 700 601 l 1038 601 l 1038 435 l 700 435 l 700 167 l 1135 167 l 1135 0 l 519 0 l 519 229 l 297 229 l 206 0 l 11 0 m 501 733 l 365 396 l 519 396 l 519 733 "},"Ç":{"ha":972,"x_min":0,"x_max":0,"o":"m 767 647 b 526 817 724 760 644 817 b 328 732 447 817 381 789 b 250 486 276 675 250 593 b 328 240 250 379 276 297 b 526 156 381 183 447 156 b 767 325 644 156 724 213 l 929 283 b 526 -11 883 96 738 -11 b 200 121 397 -11 289 33 b 67 486 111 208 67 331 b 200 851 67 642 111 764 b 526 983 289 939 397 983 b 929 689 738 983 883 876 m 644 -83 l 529 -369 l 324 -278 l 519 -83 "},"È":{"ha":799,"x_min":0,"x_max":0,"o":"m 125 972 l 726 972 l 726 806 l 306 806 l 306 601 l 643 601 l 643 435 l 306 435 l 306 167 l 740 167 l 740 0 l 125 0 m 453 1256 l 542 1050 l 410 1050 l 219 1256 "},"É":{"ha":799,"x_min":0,"x_max":0,"o":"m 125 972 l 726 972 l 726 806 l 306 806 l 306 601 l 643 601 l 643 435 l 306 435 l 306 167 l 740 167 l 740 0 l 125 0 m 303 1050 l 392 1256 l 625 1256 l 435 1050 "},"Ê":{"ha":799,"x_min":0,"x_max":0,"o":"m 125 972 l 726 972 l 726 806 l 306 806 l 306 601 l 643 601 l 643 435 l 306 435 l 306 167 l 740 167 l 740 0 l 125 0 m 172 1058 l 410 1317 l 457 1317 l 694 1058 l 528 1058 l 433 1161 l 339 1058 "},"Ë":{"ha":799,"x_min":0,"x_max":0,"o":"m 125 972 l 726 972 l 726 806 l 306 806 l 306 601 l 643 601 l 643 435 l 306 435 l 306 167 l 740 167 l 740 0 l 125 0 m 221 1106 b 221 1247 183 1143 183 1210 b 363 1247 258 1285 325 1285 b 363 1106 400 1210 400 1143 b 221 1106 325 1068 258 1068 m 508 1106 b 508 1247 471 1143 471 1210 b 650 1247 546 1285 613 1285 b 650 1106 688 1210 688 1143 b 508 1106 613 1068 546 1068 "},"Ì":{"ha":431,"x_min":0,"x_max":0,"o":"m 306 972 l 306 0 l 125 0 l 125 972 m 232 1256 l 321 1050 l 189 1050 l -1 1256 "},"Í":{"ha":431,"x_min":0,"x_max":0,"o":"m 306 972 l 306 0 l 125 0 l 125 972 m 110 1050 l 199 1256 l 432 1256 l 242 1050 "},"Î":{"ha":431,"x_min":0,"x_max":0,"o":"m 306 972 l 306 0 l 125 0 l 125 972 m -46 1058 l 192 1317 l 239 1317 l 476 1058 l 310 1058 l 215 1161 l 121 1058 "},"Ï":{"ha":431,"x_min":0,"x_max":0,"o":"m 306 972 l 306 0 l 125 0 l 125 972 m 1 1106 b 1 1247 -36 1143 -36 1210 b 143 1247 39 1285 106 1285 b 143 1106 181 1210 181 1143 b 1 1106 106 1068 39 1068 m 289 1106 b 289 1247 251 1143 251 1210 b 431 1247 326 1285 393 1285 b 431 1106 468 1210 468 1143 b 289 1106 393 1068 326 1068 "},"Ð":{"ha":983,"x_min":0,"x_max":0,"o":"m 31 411 l 31 561 l 160 561 l 160 972 l 464 972 b 917 486 693 972 917 825 b 464 0 917 147 693 0 l 160 0 l 160 411 m 340 806 l 340 561 l 469 561 l 469 411 l 340 411 l 340 167 l 407 167 b 626 229 492 167 561 185 b 733 486 693 274 733 363 b 626 743 733 610 693 699 b 407 806 561 788 492 806 "},"Ñ":{"ha":978,"x_min":0,"x_max":0,"o":"m 672 972 l 853 972 l 853 0 l 663 0 l 306 642 l 306 0 l 125 0 l 125 972 l 315 972 l 672 331 m 214 1139 b 385 1260 246 1211 314 1260 b 486 1231 417 1260 451 1250 b 569 1203 521 1213 549 1203 b 658 1263 600 1203 629 1222 l 749 1186 b 578 1065 717 1114 649 1065 b 476 1093 546 1065 511 1075 b 393 1122 442 1113 414 1122 b 304 1063 363 1122 333 1103 "},"Ò":{"ha":1050,"x_min":0,"x_max":0,"o":"m 297 931 b 525 983 365 965 440 983 b 918 764 693 983 833 918 b 983 486 961 688 983 594 b 753 40 983 269 888 111 b 525 -11 685 6 610 -11 b 131 208 357 -11 218 54 b 67 486 88 285 67 378 b 297 931 67 703 163 863 m 721 733 b 525 817 669 789 604 817 b 328 733 446 817 381 789 b 250 486 276 678 250 596 b 328 239 250 376 276 294 b 525 156 381 183 446 156 b 721 239 604 156 669 183 b 800 486 774 294 800 376 b 721 733 800 596 774 678 m 528 1256 l 617 1050 l 485 1050 l 294 1256 "},"Ó":{"ha":1050,"x_min":0,"x_max":0,"o":"m 297 931 b 525 983 365 965 440 983 b 918 764 693 983 833 918 b 983 486 961 688 983 594 b 753 40 983 269 888 111 b 525 -11 685 6 610 -11 b 131 208 357 -11 218 54 b 67 486 88 285 67 378 b 297 931 67 703 163 863 m 721 733 b 525 817 669 789 604 817 b 328 733 446 817 381 789 b 250 486 276 678 250 596 b 328 239 250 376 276 294 b 525 156 381 183 446 156 b 721 239 604 156 669 183 b 800 486 774 294 800 376 b 721 733 800 596 774 678 m 406 1050 l 494 1256 l 728 1256 l 538 1050 "},"Ô":{"ha":1050,"x_min":0,"x_max":0,"o":"m 297 931 b 525 983 365 965 440 983 b 918 764 693 983 833 918 b 983 486 961 688 983 594 b 753 40 983 269 888 111 b 525 -11 685 6 610 -11 b 131 208 357 -11 218 54 b 67 486 88 285 67 378 b 297 931 67 703 163 863 m 721 733 b 525 817 669 789 604 817 b 328 733 446 817 381 789 b 250 486 276 678 250 596 b 328 239 250 376 276 294 b 525 156 381 183 446 156 b 721 239 604 156 669 183 b 800 486 774 294 800 376 b 721 733 800 596 774 678 m 264 1058 l 501 1317 l 549 1317 l 786 1058 l 619 1058 l 525 1161 l 431 1058 "},"Õ":{"ha":1050,"x_min":0,"x_max":0,"o":"m 297 931 b 525 983 365 965 440 983 b 918 764 693 983 833 918 b 983 486 961 688 983 594 b 753 40 983 269 888 111 b 525 -11 685 6 610 -11 b 131 208 357 -11 218 54 b 67 486 88 285 67 378 b 297 931 67 703 163 863 m 721 733 b 525 817 669 789 604 817 b 328 733 446 817 381 789 b 250 486 276 678 250 596 b 328 239 250 376 276 294 b 525 156 381 183 446 156 b 721 239 604 156 669 183 b 800 486 774 294 800 376 b 721 733 800 596 774 678 m 258 1139 b 429 1260 290 1211 358 1260 b 531 1231 461 1260 496 1250 b 614 1203 565 1213 593 1203 b 703 1263 644 1203 674 1222 l 793 1186 b 622 1065 761 1114 693 1065 b 521 1093 590 1065 556 1075 b 438 1122 486 1113 458 1122 b 349 1063 407 1122 378 1103 "},"Ö":{"ha":1050,"x_min":0,"x_max":0,"o":"m 297 931 b 525 983 365 965 440 983 b 918 764 693 983 833 918 b 983 486 961 688 983 594 b 753 40 983 269 888 111 b 525 -11 685 6 610 -11 b 131 208 357 -11 218 54 b 67 486 88 285 67 378 b 297 931 67 703 163 863 m 721 733 b 525 817 669 789 604 817 b 328 733 446 817 381 789 b 250 486 276 678 250 596 b 328 239 250 376 276 294 b 525 156 381 183 446 156 b 721 239 604 156 669 183 b 800 486 774 294 800 376 b 721 733 800 596 774 678 m 311 1106 b 311 1247 274 1143 274 1210 b 453 1247 349 1285 415 1285 b 453 1106 490 1210 490 1143 b 311 1106 415 1068 349 1068 m 599 1106 b 599 1247 561 1143 561 1210 b 740 1247 636 1285 703 1285 b 740 1106 778 1210 778 1143 b 599 1106 703 1068 636 1068 "},"×":{"ha":819,"x_min":0,"x_max":0,"o":"m 736 221 l 629 114 l 410 335 l 190 114 l 83 221 l 304 440 l 83 660 l 190 767 l 410 546 l 629 767 l 736 660 l 515 440 "},"Ø":{"ha":1050,"x_min":0,"x_max":0,"o":"m 853 1029 l 972 942 l 881 824 b 983 486 949 738 983 625 b 918 208 983 378 961 285 b 525 -11 833 54 693 -11 b 282 51 435 -11 353 10 l 197 -57 l 78 31 l 169 149 b 67 486 101 235 67 347 b 131 764 67 594 88 688 b 525 983 218 918 357 983 b 768 921 615 983 697 963 m 800 486 b 763 672 800 558 788 621 l 389 190 b 525 156 429 167 475 156 b 721 239 604 156 669 183 b 800 486 774 294 800 376 m 525 817 b 328 733 446 817 381 789 b 250 486 276 678 250 596 b 288 300 250 414 263 351 l 661 782 b 525 817 621 806 575 817 "},"Ù":{"ha":911,"x_min":0,"x_max":0,"o":"m 818 972 l 818 369 b 456 -11 818 118 678 -11 b 93 369 233 -11 93 118 l 93 972 l 274 972 l 274 367 b 456 156 274 226 335 156 b 638 367 576 156 638 226 l 638 972 m 467 1256 l 556 1050 l 424 1050 l 233 1256 "},"Ú":{"ha":911,"x_min":0,"x_max":0,"o":"m 818 972 l 818 369 b 456 -11 818 118 678 -11 b 93 369 233 -11 93 118 l 93 972 l 274 972 l 274 367 b 456 156 274 226 335 156 b 638 367 576 156 638 226 l 638 972 m 353 1050 l 442 1256 l 675 1256 l 485 1050 "},"Û":{"ha":911,"x_min":0,"x_max":0,"o":"m 818 972 l 818 369 b 456 -11 818 118 678 -11 b 93 369 233 -11 93 118 l 93 972 l 274 972 l 274 367 b 456 156 274 226 335 156 b 638 367 576 156 638 226 l 638 972 m 194 1058 l 432 1317 l 479 1317 l 717 1058 l 550 1058 l 456 1161 l 361 1058 "},"Ü":{"ha":911,"x_min":0,"x_max":0,"o":"m 818 972 l 818 369 b 456 -11 818 118 678 -11 b 93 369 233 -11 93 118 l 93 972 l 274 972 l 274 367 b 456 156 274 226 335 156 b 638 367 576 156 638 226 l 638 972 m 242 1106 b 242 1247 204 1143 204 1210 b 383 1247 279 1285 346 1285 b 383 1106 421 1210 421 1143 b 242 1106 346 1068 279 1068 m 529 1106 b 529 1247 492 1143 492 1210 b 671 1247 567 1285 633 1285 b 671 1106 708 1210 708 1143 b 529 1106 633 1068 567 1068 "},"Ý":{"ha":742,"x_min":0,"x_max":0,"o":"m 0 972 l 194 972 l 371 594 l 547 972 l 742 972 l 461 414 l 461 0 l 281 0 l 281 414 m 265 1050 l 354 1256 l 588 1256 l 397 1050 "},"Þ":{"ha":822,"x_min":0,"x_max":0,"o":"m 306 190 l 306 0 l 125 0 l 125 972 l 306 972 l 306 782 l 492 782 b 796 486 690 782 796 664 b 492 190 796 308 690 190 m 485 357 b 613 486 569 357 613 400 b 485 615 613 572 569 615 l 306 615 l 306 357 "},"ß":{"ha":792,"x_min":0,"x_max":0,"o":"m 44 453 l 44 608 l 117 608 l 117 694 b 396 983 117 879 228 983 b 660 738 564 983 660 888 b 549 557 660 649 611 579 b 738 304 658 528 738 439 b 428 -11 738 94 635 -11 b 338 0 396 -11 365 -7 l 338 150 b 425 139 375 143 404 139 b 571 294 522 139 571 190 b 404 453 571 400 515 453 l 358 453 l 358 608 l 386 608 b 503 722 464 608 503 646 b 396 836 503 794 463 836 b 283 699 328 836 283 788 l 283 0 l 117 0 l 117 453 "},"à":{"ha":714,"x_min":0,"x_max":0,"o":"m 79 517 b 346 711 101 633 206 711 b 640 418 542 711 640 614 l 640 0 l 499 0 l 481 89 b 265 -11 426 22 354 -11 b 53 201 142 -11 53 67 b 351 431 53 340 174 431 l 468 431 l 468 461 b 346 564 468 529 428 564 b 225 483 283 564 243 538 m 233 204 b 306 136 233 167 260 136 b 418 176 349 136 386 150 b 468 281 451 203 468 238 l 468 294 l 353 294 b 233 204 274 294 233 264 m 375 983 l 464 778 l 332 778 l 142 983 "},"á":{"ha":714,"x_min":0,"x_max":0,"o":"m 79 517 b 346 711 101 633 206 711 b 640 418 542 711 640 614 l 640 0 l 499 0 l 481 89 b 265 -11 426 22 354 -11 b 53 201 142 -11 53 67 b 351 431 53 340 174 431 l 468 431 l 468 461 b 346 564 468 529 428 564 b 225 483 283 564 243 538 m 233 204 b 306 136 233 167 260 136 b 418 176 349 136 386 150 b 468 281 451 203 468 238 l 468 294 l 353 294 b 233 204 274 294 233 264 m 240 778 l 329 983 l 563 983 l 372 778 "},"â":{"ha":714,"x_min":0,"x_max":0,"o":"m 79 517 b 346 711 101 633 206 711 b 640 418 542 711 640 614 l 640 0 l 499 0 l 481 89 b 265 -11 426 22 354 -11 b 53 201 142 -11 53 67 b 351 431 53 340 174 431 l 468 431 l 468 461 b 346 564 468 529 428 564 b 225 483 283 564 243 538 m 233 204 b 306 136 233 167 260 136 b 418 176 349 136 386 150 b 468 281 451 203 468 238 l 468 294 l 353 294 b 233 204 274 294 233 264 m 94 786 l 332 1044 l 379 1044 l 617 786 l 450 786 l 356 889 l 261 786 "},"ã":{"ha":714,"x_min":0,"x_max":0,"o":"m 79 517 b 346 711 101 633 206 711 b 640 418 542 711 640 614 l 640 0 l 499 0 l 481 89 b 265 -11 426 22 354 -11 b 53 201 142 -11 53 67 b 351 431 53 340 174 431 l 468 431 l 468 461 b 346 564 468 529 428 564 b 225 483 283 564 243 538 m 233 204 b 306 136 233 167 260 136 b 418 176 349 136 386 150 b 468 281 451 203 468 238 l 468 294 l 353 294 b 233 204 274 294 233 264 m 92 867 b 263 988 124 939 192 988 b 364 958 294 988 329 978 b 447 931 399 940 426 931 b 536 990 478 931 507 950 l 626 914 b 456 793 594 842 526 793 b 354 821 424 793 389 803 b 271 850 319 840 292 850 b 182 790 240 850 211 831 "},"ä":{"ha":714,"x_min":0,"x_max":0,"o":"m 79 517 b 346 711 101 633 206 711 b 640 418 542 711 640 614 l 640 0 l 499 0 l 481 89 b 265 -11 426 22 354 -11 b 53 201 142 -11 53 67 b 351 431 53 340 174 431 l 468 431 l 468 461 b 346 564 468 529 428 564 b 225 483 283 564 243 538 m 233 204 b 306 136 233 167 260 136 b 418 176 349 136 386 150 b 468 281 451 203 468 238 l 468 294 l 353 294 b 233 204 274 294 233 264 m 138 833 b 138 975 100 871 100 938 b 279 975 175 1013 242 1013 b 279 833 317 938 317 871 b 138 833 242 796 175 796 m 425 833 b 425 975 388 871 388 938 b 567 975 463 1013 529 1013 b 567 833 604 938 604 871 b 425 833 529 796 463 796 "},"å":{"ha":714,"x_min":0,"x_max":0,"o":"m 79 517 b 346 711 101 633 206 711 b 640 418 542 711 640 614 l 640 0 l 499 0 l 481 89 b 265 -11 426 22 354 -11 b 53 201 142 -11 53 67 b 351 431 53 340 174 431 l 468 431 l 468 461 b 346 564 468 529 428 564 b 225 483 283 564 243 538 m 233 204 b 306 136 233 167 260 136 b 418 176 349 136 386 150 b 468 281 451 203 468 238 l 468 294 l 353 294 b 233 204 274 294 233 264 m 246 808 b 206 910 219 835 206 869 b 246 1011 206 950 219 985 b 349 1051 272 1038 307 1051 b 451 1011 390 1051 425 1038 b 492 910 478 985 492 950 b 451 808 492 869 478 835 b 349 768 425 782 390 768 b 246 808 307 768 272 782 m 349 954 b 307 910 321 954 307 939 b 349 865 307 881 321 865 b 390 910 376 865 390 881 b 349 954 390 939 376 954 "},"æ":{"ha":1181,"x_min":0,"x_max":0,"o":"m 1131 294 l 649 294 b 814 136 653 210 714 136 b 983 244 885 136 942 172 l 1122 193 b 804 -11 1063 57 957 -11 b 526 135 681 -11 589 38 b 265 -11 461 38 375 -11 b 53 201 142 -11 53 68 b 351 431 53 340 174 431 l 468 431 l 468 461 b 346 564 468 529 428 564 b 225 483 283 564 243 538 l 79 517 b 346 711 101 633 206 711 b 576 626 450 711 528 683 b 804 711 636 683 711 711 b 1056 594 915 711 1006 665 b 1131 365 1106 526 1131 444 m 233 204 b 306 136 233 167 260 136 b 418 176 349 136 386 150 b 468 281 451 203 468 238 l 468 294 l 353 294 b 233 204 274 294 233 264 m 804 564 b 651 431 722 564 664 503 l 954 431 b 804 564 935 519 885 564 "},"ç":{"ha":765,"x_min":0,"x_max":0,"o":"m 719 189 b 401 -11 665 56 560 -11 b 149 92 292 -11 208 24 b 60 350 89 160 60 246 b 149 608 60 454 89 540 b 401 711 208 676 292 711 b 719 511 560 711 665 644 l 565 449 b 401 564 528 525 472 564 b 240 350 296 564 240 478 b 401 136 240 222 296 136 b 565 251 472 136 528 175 m 518 -83 l 403 -369 l 197 -278 l 393 -83 "},"è":{"ha":772,"x_min":0,"x_max":0,"o":"m 722 294 l 240 294 b 406 136 244 210 306 136 b 575 244 476 136 533 172 l 714 193 b 396 -11 654 57 549 -11 b 60 350 156 -11 60 183 b 396 711 60 517 156 711 b 647 594 507 711 597 665 b 722 365 697 526 722 444 m 396 564 b 244 431 314 564 257 504 l 546 431 b 396 564 526 519 476 564 m 400 983 l 489 778 l 357 778 l 167 983 "},"é":{"ha":772,"x_min":0,"x_max":0,"o":"m 722 294 l 240 294 b 406 136 244 210 306 136 b 575 244 476 136 533 172 l 714 193 b 396 -11 654 57 549 -11 b 60 350 156 -11 60 183 b 396 711 60 517 156 711 b 647 594 507 711 597 665 b 722 365 697 526 722 444 m 396 564 b 244 431 314 564 257 504 l 546 431 b 396 564 526 519 476 564 m 275 778 l 364 983 l 597 983 l 407 778 "},"ê":{"ha":772,"x_min":0,"x_max":0,"o":"m 722 294 l 240 294 b 406 136 244 210 306 136 b 575 244 476 136 533 172 l 714 193 b 396 -11 654 57 549 -11 b 60 350 156 -11 60 183 b 396 711 60 517 156 711 b 647 594 507 711 597 665 b 722 365 697 526 722 444 m 396 564 b 244 431 314 564 257 504 l 546 431 b 396 564 526 519 476 564 m 135 786 l 372 1044 l 419 1044 l 657 786 l 490 786 l 396 889 l 301 786 "},"ë":{"ha":772,"x_min":0,"x_max":0,"o":"m 722 294 l 240 294 b 406 136 244 210 306 136 b 575 244 476 136 533 172 l 714 193 b 396 -11 654 57 549 -11 b 60 350 156 -11 60 183 b 396 711 60 517 156 711 b 647 594 507 711 597 665 b 722 365 697 526 722 444 m 396 564 b 244 431 314 564 257 504 l 546 431 b 396 564 526 519 476 564 m 182 833 b 182 975 144 871 144 938 b 324 975 219 1013 286 1013 b 324 833 361 938 361 871 b 182 833 286 796 219 796 m 469 833 b 469 975 432 871 432 938 b 611 975 507 1013 574 1013 b 611 833 649 938 649 871 b 469 833 574 796 507 796 "},"ì":{"ha":361,"x_min":0,"x_max":0,"o":"m 94 700 l 267 700 l 267 0 l 94 0 m 211 983 l 300 778 l 168 778 l -22 983 "},"í":{"ha":361,"x_min":0,"x_max":0,"o":"m 94 700 l 267 700 l 267 0 l 94 0 m 61 778 l 150 983 l 383 983 l 193 778 "},"î":{"ha":361,"x_min":0,"x_max":0,"o":"m 94 700 l 267 700 l 267 0 l 94 0 m -79 786 l 158 1044 l 206 1044 l 443 786 l 276 786 l 182 889 l 88 786 "},"ï":{"ha":361,"x_min":0,"x_max":0,"o":"m 94 700 l 267 700 l 267 0 l 94 0 m -33 833 b -33 975 -71 871 -71 938 b 108 975 4 1013 71 1013 b 108 833 146 938 146 871 b -33 833 71 796 4 796 m 254 833 b 254 975 217 871 217 938 b 396 975 292 1013 358 1013 b 396 833 433 938 433 871 b 254 833 358 796 292 796 "},"ð":{"ha":811,"x_min":0,"x_max":0,"o":"m 360 742 l 256 815 l 296 874 b 176 928 250 897 210 915 l 263 1054 b 379 996 304 1036 343 1017 l 425 1063 l 531 990 l 486 925 b 751 383 665 797 751 629 b 660 97 751 265 721 169 b 406 -11 600 25 515 -11 b 150 90 296 -11 211 22 b 60 350 90 158 60 244 b 150 610 60 456 90 542 b 406 711 211 678 296 711 b 518 683 446 711 483 701 b 404 807 492 731 453 772 m 571 350 b 406 564 569 472 511 564 b 240 350 300 564 240 472 b 406 136 240 228 300 136 b 571 350 511 136 571 228 "},"ñ":{"ha":815,"x_min":0,"x_max":0,"o":"m 111 700 l 283 700 l 283 588 b 500 711 340 669 413 711 b 715 500 629 711 715 638 l 715 0 l 543 0 l 543 449 b 443 564 543 525 510 564 b 283 279 354 564 283 456 l 283 0 l 111 0 m 157 867 b 328 988 189 939 257 988 b 429 958 360 988 394 978 b 513 931 464 940 492 931 b 601 990 543 931 572 950 l 692 914 b 521 793 660 842 592 793 b 419 821 489 793 454 803 b 336 850 385 840 357 850 b 247 790 306 850 276 831 "},"ò":{"ha":831,"x_min":0,"x_max":0,"o":"m 156 90 b 60 350 92 158 60 246 b 156 608 60 454 92 540 b 415 711 219 676 306 711 b 675 608 525 711 611 676 b 771 350 739 540 771 454 b 675 90 771 246 739 158 b 415 -11 611 22 525 -11 b 156 90 306 -11 219 22 m 288 501 b 240 350 256 461 240 410 b 288 197 240 290 256 239 b 415 136 319 157 361 136 b 543 197 469 136 511 157 b 590 350 575 239 590 290 b 543 501 590 410 575 461 b 415 564 511 543 469 564 b 288 501 361 564 319 543 m 432 983 l 521 778 l 389 778 l 199 983 "},"ó":{"ha":831,"x_min":0,"x_max":0,"o":"m 156 90 b 60 350 92 158 60 246 b 156 608 60 454 92 540 b 415 711 219 676 306 711 b 675 608 525 711 611 676 b 771 350 739 540 771 454 b 675 90 771 246 739 158 b 415 -11 611 22 525 -11 b 156 90 306 -11 219 22 m 288 501 b 240 350 256 461 240 410 b 288 197 240 290 256 239 b 415 136 319 157 361 136 b 543 197 469 136 511 157 b 590 350 575 239 590 290 b 543 501 590 410 575 461 b 415 564 511 543 469 564 b 288 501 361 564 319 543 m 296 778 l 385 983 l 618 983 l 428 778 "},"ô":{"ha":831,"x_min":0,"x_max":0,"o":"m 156 90 b 60 350 92 158 60 246 b 156 608 60 454 92 540 b 415 711 219 676 306 711 b 675 608 525 711 611 676 b 771 350 739 540 771 454 b 675 90 771 246 739 158 b 415 -11 611 22 525 -11 b 156 90 306 -11 219 22 m 288 501 b 240 350 256 461 240 410 b 288 197 240 290 256 239 b 415 136 319 157 361 136 b 543 197 469 136 511 157 b 590 350 575 239 590 290 b 543 501 590 410 575 461 b 415 564 511 543 469 564 b 288 501 361 564 319 543 m 154 786 l 392 1044 l 439 1044 l 676 786 l 510 786 l 415 889 l 321 786 "},"õ":{"ha":831,"x_min":0,"x_max":0,"o":"m 156 90 b 60 350 92 158 60 246 b 156 608 60 454 92 540 b 415 711 219 676 306 711 b 675 608 525 711 611 676 b 771 350 739 540 771 454 b 675 90 771 246 739 158 b 415 -11 611 22 525 -11 b 156 90 306 -11 219 22 m 288 501 b 240 350 256 461 240 410 b 288 197 240 290 256 239 b 415 136 319 157 361 136 b 543 197 469 136 511 157 b 590 350 575 239 590 290 b 543 501 590 410 575 461 b 415 564 511 543 469 564 b 288 501 361 564 319 543 m 149 867 b 319 988 181 939 249 988 b 421 958 351 988 386 978 b 504 931 456 940 483 931 b 593 990 535 931 564 950 l 683 914 b 513 793 651 842 583 793 b 411 821 481 793 446 803 b 328 850 376 840 349 850 b 239 790 297 850 268 831 "},"ö":{"ha":831,"x_min":0,"x_max":0,"o":"m 156 90 b 60 350 92 158 60 246 b 156 608 60 454 92 540 b 415 711 219 676 306 711 b 675 608 525 711 611 676 b 771 350 739 540 771 454 b 675 90 771 246 739 158 b 415 -11 611 22 525 -11 b 156 90 306 -11 219 22 m 288 501 b 240 350 256 461 240 410 b 288 197 240 290 256 239 b 415 136 319 157 361 136 b 543 197 469 136 511 157 b 590 350 575 239 590 290 b 543 501 590 410 575 461 b 415 564 511 543 469 564 b 288 501 361 564 319 543 m 201 833 b 201 975 164 871 164 938 b 343 975 239 1013 306 1013 b 343 833 381 938 381 871 b 201 833 306 796 239 796 m 489 833 b 489 975 451 871 451 938 b 631 975 526 1013 593 1013 b 631 833 668 938 668 871 b 489 833 593 796 526 796 "},"÷":{"ha":778,"x_min":0,"x_max":0,"o":"m 306 89 b 306 256 261 133 261 211 b 472 256 350 300 428 300 b 472 89 517 211 517 133 b 306 89 428 44 350 44 m 306 619 b 306 786 261 664 261 742 b 472 786 350 831 428 831 b 472 619 517 742 517 664 b 306 619 428 575 350 575 m 58 363 l 58 513 l 719 513 l 719 363 "},"ø":{"ha":831,"x_min":0,"x_max":0,"o":"m 60 350 b 156 608 60 454 92 540 b 415 711 219 676 306 711 b 578 678 475 711 529 700 l 661 783 l 781 696 l 694 586 b 771 350 746 522 771 443 b 675 90 771 246 739 158 b 415 -11 611 22 525 -11 b 253 22 356 -11 301 0 l 169 -83 l 50 4 l 136 114 b 60 350 85 178 60 257 m 590 350 b 576 436 590 382 586 411 l 351 149 b 415 136 371 140 392 136 b 543 197 469 136 511 157 b 590 350 575 239 590 290 m 240 350 b 254 264 240 318 244 289 l 479 551 b 415 564 460 560 439 564 b 288 501 361 564 319 543 b 240 350 256 461 240 410 "},"ù":{"ha":815,"x_min":0,"x_max":0,"o":"m 704 0 l 532 0 l 532 113 b 315 -11 475 31 403 -11 b 100 200 186 -11 100 63 l 100 700 l 272 700 l 272 251 b 372 136 272 175 306 136 b 532 421 461 136 532 244 l 532 700 l 704 700 m 401 983 l 490 778 l 358 778 l 168 983 "},"ú":{"ha":815,"x_min":0,"x_max":0,"o":"m 704 0 l 532 0 l 532 113 b 315 -11 475 31 403 -11 b 100 200 186 -11 100 63 l 100 700 l 272 700 l 272 251 b 372 136 272 175 306 136 b 532 421 461 136 532 244 l 532 700 l 704 700 m 308 778 l 397 983 l 631 983 l 440 778 "},"û":{"ha":815,"x_min":0,"x_max":0,"o":"m 704 0 l 532 0 l 532 113 b 315 -11 475 31 403 -11 b 100 200 186 -11 100 63 l 100 700 l 272 700 l 272 251 b 372 136 272 175 306 136 b 532 421 461 136 532 244 l 532 700 l 704 700 m 143 786 l 381 1044 l 428 1044 l 665 786 l 499 786 l 404 889 l 310 786 "},"ü":{"ha":815,"x_min":0,"x_max":0,"o":"m 704 0 l 532 0 l 532 113 b 315 -11 475 31 403 -11 b 100 200 186 -11 100 63 l 100 700 l 272 700 l 272 251 b 372 136 272 175 306 136 b 532 421 461 136 532 244 l 532 700 l 704 700 m 200 833 b 200 975 163 871 163 938 b 342 975 238 1013 304 1013 b 342 833 379 938 379 871 b 200 833 304 796 238 796 m 488 833 b 488 975 450 871 450 938 b 629 975 525 1013 592 1013 b 629 833 667 938 667 871 b 488 833 592 796 525 796 "},"ý":{"ha":668,"x_min":0,"x_max":0,"o":"m 4 700 l 178 700 l 340 261 l 493 700 l 665 700 l 304 -283 l 138 -283 l 258 44 m 232 778 l 321 983 l 554 983 l 364 778 "},"þ":{"ha":832,"x_min":0,"x_max":0,"o":"m 453 -11 b 283 72 374 -11 306 32 l 283 -283 l 111 -283 l 111 983 l 283 983 l 283 636 b 453 711 315 676 385 711 b 772 350 658 711 772 571 b 453 -11 772 129 658 -11 m 546 193 b 592 350 576 231 592 283 b 546 507 592 417 576 469 b 429 564 515 544 476 564 b 313 507 382 564 343 544 b 268 350 283 469 268 418 b 313 192 268 282 283 229 b 429 136 343 154 382 136 b 546 193 476 136 515 156 "},"ÿ":{"ha":668,"x_min":0,"x_max":0,"o":"m 4 700 l 178 700 l 340 261 l 493 700 l 665 700 l 304 -283 l 138 -283 l 258 44 m 124 833 b 124 975 86 871 86 938 b 265 975 161 1013 228 1013 b 265 833 303 938 303 871 b 124 833 228 796 161 796 m 411 833 b 411 975 374 871 374 938 b 553 975 449 1013 515 1013 b 553 833 590 938 590 871 b 411 833 515 796 449 796 "},"ı":{"ha":361,"x_min":0,"x_max":0,"o":"m 94 700 l 267 700 l 267 0 l 94 0 "},"Ł":{"ha":765,"x_min":0,"x_max":0,"o":"m 153 972 l 333 972 l 333 600 l 474 678 l 547 546 l 333 428 l 333 167 l 746 167 l 746 0 l 153 0 l 153 328 l 78 286 l 4 418 l 153 500 "},"ł":{"ha":511,"x_min":0,"x_max":0,"o":"m 167 983 l 339 983 l 339 638 l 407 675 l 481 543 l 339 465 l 339 0 l 167 0 l 167 371 l 99 335 l 25 467 l 167 543 "},"Œ":{"ha":1475,"x_min":0,"x_max":0,"o":"m 801 972 l 1403 972 l 1403 806 l 982 806 l 982 601 l 1319 601 l 1319 435 l 982 435 l 982 167 l 1417 167 l 1417 0 l 801 0 l 801 72 b 525 -11 724 17 632 -11 b 297 40 440 -11 365 6 b 67 486 163 111 67 269 b 131 764 67 594 88 688 b 525 983 218 918 357 983 b 801 899 632 983 725 956 m 722 733 b 525 817 669 789 604 817 b 328 733 446 817 381 789 b 250 486 276 678 250 596 b 328 239 250 376 276 294 b 525 156 381 183 446 156 b 722 239 604 156 669 183 b 801 486 775 294 801 376 b 722 733 801 596 775 678 "},"œ":{"ha":1303,"x_min":0,"x_max":0,"o":"m 1253 294 l 771 294 b 936 136 775 210 836 136 b 1106 244 1007 136 1064 172 l 1244 193 b 926 -11 1185 57 1079 -11 b 678 94 822 -11 739 24 b 415 -11 613 24 525 -11 b 156 90 306 -11 219 22 b 60 350 92 158 60 246 b 156 608 60 454 92 540 b 415 711 219 676 306 711 b 679 606 525 711 614 676 b 926 711 740 676 822 711 b 1178 594 1038 711 1128 665 b 1253 365 1228 526 1253 444 m 590 350 b 542 501 590 410 574 460 b 415 564 510 543 468 564 b 288 501 361 564 319 543 b 240 350 256 461 240 410 b 288 197 240 290 256 239 b 415 136 319 157 361 136 b 543 197 469 136 511 157 b 590 350 575 239 590 290 m 926 564 b 775 431 844 564 788 504 l 1076 431 b 926 564 1057 519 1007 564 "},"Š":{"ha":746,"x_min":0,"x_max":0,"o":"m 507 714 b 372 817 472 782 426 817 b 279 728 318 817 279 779 b 425 583 279 667 346 621 b 694 292 542 532 696 460 b 383 -11 694 103 572 -11 b 164 67 299 -11 225 15 b 49 261 103 119 64 185 l 194 353 b 388 156 232 221 296 156 b 514 282 472 156 514 197 b 369 418 514 339 451 383 b 107 719 254 467 104 540 b 182 907 107 793 132 856 b 372 983 233 958 296 983 b 653 807 504 983 597 925 m 349 1058 l 111 1317 l 278 1317 l 372 1214 l 467 1317 l 633 1317 l 396 1058 "},"š":{"ha":642,"x_min":0,"x_max":0,"o":"m 321 711 b 540 597 414 711 496 665 l 438 503 b 321 564 406 543 367 564 b 257 506 286 564 257 543 b 324 438 257 476 279 454 l 374 419 l 433 399 b 483 372 444 394 461 385 b 533 336 507 360 524 349 b 576 222 554 313 576 271 b 507 57 576 157 553 103 b 328 -11 461 11 401 -11 b 154 46 261 -11 203 8 b 50 178 106 83 71 128 l 188 251 b 328 136 215 175 263 136 b 414 211 385 136 414 161 b 376 264 414 233 403 251 b 338 281 364 271 350 276 b 239 318 314 292 265 307 b 97 507 150 356 97 407 b 160 651 97 564 118 611 b 321 711 201 692 256 711 m 299 786 l 61 1044 l 228 1044 l 322 942 l 417 1044 l 583 1044 l 346 786 "},"Ÿ":{"ha":742,"x_min":0,"x_max":0,"o":"m 0 972 l 194 972 l 371 594 l 547 972 l 742 972 l 461 414 l 461 0 l 281 0 l 281 414 m 157 1106 b 157 1247 119 1143 119 1210 b 299 1247 194 1285 261 1285 b 299 1106 336 1210 336 1143 b 157 1106 261 1068 194 1068 m 444 1106 b 444 1247 407 1143 407 1210 b 586 1247 482 1285 549 1285 b 586 1106 624 1210 624 1143 b 444 1106 549 1068 482 1068 "},"Ž":{"ha":775,"x_min":0,"x_max":0,"o":"m 65 806 l 65 972 l 710 972 l 710 889 l 293 167 l 729 167 l 729 0 l 42 0 l 42 83 l 463 806 m 378 1058 l 140 1317 l 307 1317 l 401 1214 l 496 1317 l 663 1317 l 425 1058 "},"ž":{"ha":646,"x_min":0,"x_max":0,"o":"m 79 553 l 79 700 l 574 700 l 574 633 l 274 147 l 593 147 l 593 0 l 57 0 l 57 67 l 360 553 m 311 786 l 74 1044 l 240 1044 l 335 942 l 429 1044 l 596 1044 l 358 786 "},"ƒ":{"ha":671,"x_min":0,"x_max":0,"o":"m 144 553 l 174 700 l 285 700 l 292 736 b 581 983 324 901 431 983 b 706 956 635 983 676 974 l 642 817 b 563 836 614 829 588 836 b 465 749 510 836 478 807 l 457 700 l 607 700 l 578 553 l 428 553 l 310 -47 b 21 -294 278 -212 171 -294 b -104 -267 -33 -294 -75 -285 l -40 -128 b 39 -147 -12 -140 14 -147 b 136 -60 92 -147 124 -118 l 254 553 "},"ˆ":{"ha":594,"x_min":0,"x_max":0,"o":"m 36 786 l 274 1044 l 321 1044 l 558 786 l 392 786 l 297 889 l 203 786 "},"ˇ":{"ha":594,"x_min":0,"x_max":0,"o":"m 274 786 l 36 1044 l 203 1044 l 297 942 l 392 1044 l 558 1044 l 321 786 "},"˘":{"ha":360,"x_min":0,"x_max":0,"o":"m 11 972 l 138 972 b 213 972 138 922 213 922 l 339 972 b 175 821 339 889 274 821 b 11 972 76 821 11 889 "},"˙":{"ha":400,"x_min":0,"x_max":0,"o":"m 121 822 b 121 981 78 865 78 938 b 279 981 164 1024 236 1024 b 279 822 322 938 322 865 b 121 822 236 779 164 779 "},"˚":{"ha":325,"x_min":0,"x_max":0,"o":"m 60 808 b 19 910 33 835 19 869 b 60 1011 19 950 33 985 b 163 1051 86 1038 121 1051 b 265 1011 204 1051 239 1038 b 306 910 292 985 306 950 b 265 808 306 869 292 835 b 163 768 239 782 204 768 b 60 808 121 768 86 782 m 163 954 b 121 910 135 954 121 939 b 163 865 121 881 135 865 b 204 910 190 865 204 881 b 163 954 204 939 190 954 "},"˛":{"ha":318,"x_min":0,"x_max":0,"o":"m 99 -83 l 210 -83 b 129 -192 156 -129 129 -165 b 165 -228 129 -215 142 -228 b 233 -174 189 -228 201 -217 l 307 -233 b 146 -340 263 -306 218 -340 b 11 -215 64 -340 11 -293 b 99 -83 11 -164 49 -112 "},"˜":{"ha":576,"x_min":0,"x_max":0,"o":"m 111 790 l 21 867 b 192 988 53 939 121 988 b 293 958 224 988 258 978 b 376 931 328 940 356 931 b 465 990 407 931 436 950 l 556 914 b 385 793 524 842 456 793 b 283 821 353 793 318 803 b 200 850 249 840 221 850 b 111 790 169 850 140 831 "},"˝":{"ha":643,"x_min":0,"x_max":0,"o":"m 25 778 l 114 983 l 347 983 l 157 778 m 307 778 l 396 983 l 629 983 l 439 778 "},"Δ":{"ha":967,"x_min":0,"x_max":0,"o":"m 68 0 l 68 44 l 413 972 l 554 972 l 899 44 l 899 0 m 483 761 l 271 150 l 696 150 "},"Ω":{"ha":967,"x_min":0,"x_max":0,"o":"m 871 150 l 871 0 l 531 0 l 531 56 l 568 140 b 629 340 583 176 604 243 b 668 611 656 439 668 529 b 483 833 668 750 601 833 b 299 611 365 833 299 750 b 346 294 299 507 319 383 b 422 86 374 206 404 126 l 436 56 l 436 0 l 96 0 l 96 150 l 276 150 b 224 242 269 161 258 175 b 178 344 207 276 192 310 b 126 611 151 413 126 521 b 222 879 126 721 158 810 b 483 983 288 949 374 983 b 743 879 593 983 679 949 b 840 611 808 810 840 721 b 803 389 840 540 828 465 b 728 211 778 313 753 253 l 690 150 "},"π":{"ha":861,"x_min":0,"x_max":0,"o":"m 69 550 l 69 700 l 790 700 l 790 550 l 675 550 l 675 0 l 503 0 l 503 550 l 357 550 l 357 0 l 185 0 l 185 550 "}," ":{"ha":661,"x_min":0,"x_max":0,"o":""}," ":{"ha":1324,"x_min":0,"x_max":0,"o":""}," ":{"ha":661,"x_min":0,"x_max":0,"o":""}," ":{"ha":1324,"x_min":0,"x_max":0,"o":""}," ":{"ha":440,"x_min":0,"x_max":0,"o":""}," ":{"ha":331,"x_min":0,"x_max":0,"o":""}," ":{"ha":219,"x_min":0,"x_max":0,"o":""}," ":{"ha":219,"x_min":0,"x_max":0,"o":""}," ":{"ha":165,"x_min":0,"x_max":0,"o":""}," ":{"ha":264,"x_min":0,"x_max":0,"o":""}," ":{"ha":72,"x_min":0,"x_max":0,"o":""},"‐":{"ha":699,"x_min":0,"x_max":0,"o":"m 90 365 l 90 515 l 608 515 l 608 365 "},"‑":{"ha":699,"x_min":0,"x_max":0,"o":"m 90 365 l 90 515 l 608 515 l 608 365 "},"–":{"ha":813,"x_min":0,"x_max":0,"o":"m 90 365 l 90 515 l 722 515 l 722 365 "},"—":{"ha":1071,"x_min":0,"x_max":0,"o":"m 90 365 l 90 515 l 981 515 l 981 365 "},"‘":{"ha":464,"x_min":0,"x_max":0,"o":"m 296 983 l 404 644 l 276 644 l 69 983 "},"’":{"ha":464,"x_min":0,"x_max":0,"o":"m 60 644 l 168 983 l 394 983 l 188 644 "},"‚":{"ha":464,"x_min":0,"x_max":0,"o":"m 60 -19 l 168 319 l 394 319 l 188 -19 "},"“":{"ha":769,"x_min":0,"x_max":0,"o":"m 601 983 l 710 644 l 582 644 l 375 983 m 296 983 l 404 644 l 276 644 l 69 983 "},"”":{"ha":769,"x_min":0,"x_max":0,"o":"m 60 644 l 168 983 l 394 983 l 188 644 m 365 644 l 474 983 l 700 983 l 493 644 "},"„":{"ha":769,"x_min":0,"x_max":0,"o":"m 60 -19 l 168 319 l 394 319 l 188 -19 m 365 -19 l 474 319 l 700 319 l 493 -19 "},"†":{"ha":728,"x_min":0,"x_max":0,"o":"m 72 550 l 72 700 l 279 700 l 279 1042 l 449 1042 l 449 700 l 656 700 l 656 550 l 449 550 l 449 -69 l 279 -69 l 279 550 "},"‡":{"ha":728,"x_min":0,"x_max":0,"o":"m 72 550 l 72 700 l 279 700 l 279 1042 l 449 1042 l 449 700 l 656 700 l 656 550 l 449 550 l 449 422 l 656 422 l 656 272 l 449 272 l 449 -69 l 279 -69 l 279 272 l 72 272 l 72 422 l 279 422 l 279 550 "},"•":{"ha":544,"x_min":0,"x_max":0,"o":"m 156 342 b 108 458 124 374 108 413 b 156 574 108 504 124 542 b 272 622 188 606 226 622 b 388 574 318 622 356 606 b 436 458 419 542 436 504 b 388 342 436 413 419 374 b 272 294 356 310 318 294 b 156 342 226 294 188 310 "},"…":{"ha":1350,"x_min":0,"x_max":0,"o":"m 144 25 b 144 192 100 69 100 147 b 311 192 189 236 267 236 b 311 25 356 147 356 69 b 144 25 267 -19 189 -19 m 592 25 b 592 192 547 69 547 147 b 758 192 636 236 714 236 b 758 25 803 147 803 69 b 592 25 714 -19 636 -19 m 1039 25 b 1039 192 994 69 994 147 b 1206 192 1083 236 1161 236 b 1206 25 1250 147 1250 69 b 1039 25 1161 -19 1083 -19 "}," ":{"ha":264,"x_min":0,"x_max":0,"o":""},"‰":{"ha":1718,"x_min":0,"x_max":0,"o":"m 136 603 b 72 761 93 646 72 699 b 136 919 72 824 93 876 b 300 983 179 963 235 983 b 463 919 365 983 419 963 b 528 761 506 876 528 824 b 463 603 528 699 506 646 b 300 539 419 560 365 539 b 136 603 235 539 179 560 m 236 825 b 236 696 207 792 207 731 b 300 671 251 679 274 671 b 363 696 326 671 347 679 b 363 825 394 731 394 792 b 300 851 347 843 326 851 b 236 825 274 851 251 843 m 700 53 b 636 211 657 96 636 149 b 700 369 636 274 657 326 b 864 433 743 413 799 433 b 1026 369 929 433 983 413 b 1092 211 1069 326 1092 274 b 1026 53 1092 149 1069 96 b 864 -11 983 10 929 -11 b 700 53 799 -11 743 10 m 800 275 b 800 146 771 242 771 181 b 864 121 815 129 838 121 b 926 146 890 121 911 129 b 926 275 958 181 958 242 b 864 301 911 293 890 301 b 800 275 838 301 815 293 m 1254 53 b 1190 211 1211 96 1190 149 b 1254 369 1190 274 1211 326 b 1418 433 1297 413 1353 433 b 1581 369 1483 433 1538 413 b 1646 211 1624 326 1646 274 b 1581 53 1646 149 1624 96 b 1418 -11 1538 10 1483 -11 b 1254 53 1353 -11 1297 10 m 1354 275 b 1354 146 1325 242 1325 181 b 1418 121 1369 129 1392 121 b 1481 146 1444 121 1465 129 b 1481 275 1513 181 1513 242 b 1418 301 1465 293 1444 301 b 1354 275 1392 301 1369 293 m 914 1025 l 1014 946 l 267 -53 l 167 28 "},"‹":{"ha":560,"x_min":0,"x_max":0,"o":"m 61 374 l 61 488 l 490 790 l 490 613 l 233 431 l 490 249 l 490 71 "},"›":{"ha":560,"x_min":0,"x_max":0,"o":"m 499 488 l 499 374 l 69 71 l 69 249 l 326 431 l 69 613 l 69 790 "},"⁄":{"ha":856,"x_min":0,"x_max":0,"o":"m 751 1025 l 851 946 l 104 -53 l 4 28 "}," ":{"ha":331,"x_min":0,"x_max":0,"o":""},"⁰":{"ha":575,"x_min":0,"x_max":0,"o":"m 118 903 b 288 978 160 953 217 978 b 456 903 358 978 415 953 b 518 694 497 854 518 785 b 456 485 518 604 497 535 b 288 411 415 436 358 411 b 118 485 217 411 160 436 b 57 694 78 535 57 604 b 118 903 57 785 78 854 m 361 821 b 214 821 322 876 253 876 b 185 694 194 794 185 751 b 214 567 185 638 194 594 b 361 567 253 513 322 513 b 390 694 381 594 390 638 b 361 821 390 751 381 794 "},"⁴":{"ha":488,"x_min":0,"x_max":0,"o":"m 271 417 l 271 507 l 39 507 l 39 569 l 263 972 l 394 972 l 394 622 l 454 622 l 454 507 l 394 507 l 394 417 m 183 622 l 271 622 l 271 792 "},"⁵":{"ha":493,"x_min":0,"x_max":0,"o":"m 58 575 l 179 589 b 250 526 189 547 213 526 b 325 608 300 526 325 554 b 250 685 325 660 300 685 b 169 653 221 685 193 674 l 71 674 l 100 972 l 419 972 l 419 857 l 204 857 l 190 764 b 278 785 215 778 244 785 b 454 608 390 785 454 713 b 250 411 454 486 374 411 b 58 575 150 411 68 481 "},"⁶":{"ha":519,"x_min":0,"x_max":0,"o":"m 389 978 l 265 772 b 290 776 272 775 281 776 b 458 594 385 776 458 715 b 263 411 458 488 378 411 b 68 594 147 411 68 485 b 93 699 68 635 76 669 l 250 978 m 263 661 b 197 594 225 661 197 635 b 308 544 193 533 272 504 b 263 661 349 585 321 668 "},"⁷":{"ha":439,"x_min":0,"x_max":0,"o":"m 418 972 l 418 924 l 210 417 l 78 417 l 261 857 l 56 857 l 56 972 "},"⁸":{"ha":503,"x_min":0,"x_max":0,"o":"m 425 828 b 363 717 425 776 404 740 b 443 592 417 692 443 650 b 251 411 443 482 367 411 b 60 592 136 411 60 482 b 140 717 60 650 86 692 b 78 828 99 740 78 776 b 251 978 78 910 146 978 b 425 828 357 978 425 910 m 297 639 b 206 639 275 663 228 663 b 206 544 183 615 183 568 b 297 544 228 521 275 521 b 297 639 319 568 319 615 m 293 868 b 210 868 272 890 231 890 b 210 779 189 846 189 801 b 293 779 231 757 272 757 b 293 868 314 801 314 846 "},"⁹":{"ha":519,"x_min":0,"x_max":0,"o":"m 131 411 l 254 617 b 229 613 247 614 239 613 b 61 794 135 613 61 674 b 257 978 61 901 142 978 b 451 794 372 978 451 904 b 426 690 451 754 443 719 l 269 411 m 257 728 b 322 794 294 728 322 754 b 210 843 322 854 251 885 b 257 728 171 804 197 721 "},"€":{"ha":894,"x_min":0,"x_max":0,"o":"m 35 522 l 104 672 l 174 672 b 544 983 219 874 360 983 b 844 821 686 983 786 929 l 694 732 b 544 822 663 792 613 822 b 350 672 444 822 379 772 l 642 672 l 572 522 l 331 522 l 331 450 l 642 450 l 572 300 l 350 300 b 544 150 379 200 444 150 b 694 240 613 150 663 181 l 844 151 b 544 -11 786 43 686 -11 b 174 300 360 -11 219 99 l 35 300 l 104 450 l 158 450 l 158 522 "},"™":{"ha":1183,"x_min":0,"x_max":0,"o":"m 32 847 l 32 972 l 456 972 l 456 847 l 311 847 l 311 417 l 176 417 l 176 847 m 539 417 l 539 972 l 674 972 l 808 649 l 943 972 l 1078 972 l 1078 417 l 943 417 l 943 685 l 853 468 l 764 468 l 674 685 l 674 417 "},"∂":{"ha":875,"x_min":0,"x_max":0,"o":"m 142 782 b 254 925 160 839 197 888 b 442 983 311 964 374 983 b 796 511 690 983 796 828 b 701 146 796 365 767 246 b 364 -11 636 47 519 -11 b 146 72 275 -11 203 17 b 61 290 89 128 61 200 b 183 592 61 411 101 513 b 493 711 265 671 368 711 b 614 681 538 711 578 701 b 458 836 597 786 549 836 b 299 733 385 836 332 801 m 478 564 b 315 483 413 564 358 538 b 251 301 272 429 251 369 b 392 136 251 207 297 136 b 544 213 457 136 507 161 b 601 399 582 264 601 326 b 478 564 601 510 565 564 "},"∏":{"ha":813,"x_min":0,"x_max":0,"o":"m 122 0 l 122 972 l 690 972 l 690 0 l 518 0 l 518 822 l 294 822 l 294 0 "},"∑":{"ha":768,"x_min":0,"x_max":0,"o":"m 685 0 l 72 0 l 72 76 l 331 486 l 72 896 l 72 972 l 685 972 l 685 822 l 307 822 l 503 506 l 503 467 l 307 150 l 685 150 "},"−":{"ha":825,"x_min":0,"x_max":0,"o":"m 83 365 l 83 515 l 744 515 l 744 365 "},"√":{"ha":835,"x_min":0,"x_max":0,"o":"m 72 385 l 72 540 l 328 540 l 426 226 l 642 983 l 808 983 l 503 0 l 361 0 l 233 385 "},"∞":{"ha":1228,"x_min":0,"x_max":0,"o":"m 889 233 b 614 365 785 233 675 275 b 339 233 553 275 443 233 b 71 499 168 233 71 338 b 339 764 71 660 168 764 b 614 632 443 764 553 722 b 889 764 675 722 785 764 b 1157 499 1060 764 1157 660 b 889 233 1157 338 1060 233 m 363 378 b 524 499 428 378 481 418 b 363 619 481 579 428 619 b 238 499 286 619 238 578 b 363 378 238 419 286 378 m 865 378 b 990 499 942 378 990 419 b 865 619 990 578 942 619 b 704 499 800 619 747 579 b 865 378 747 418 800 378 "},"∫":{"ha":671,"x_min":0,"x_max":0,"o":"m 136 -60 l 292 736 b 575 983 324 901 418 983 b 706 956 632 983 676 974 l 642 817 b 563 836 614 829 588 836 b 465 749 510 836 478 807 l 310 -47 b 31 -294 278 -212 185 -294 b -104 -267 -29 -294 -75 -285 l -40 -128 b 39 -147 -12 -140 14 -147 b 136 -60 92 -147 124 -118 "},"≈":{"ha":874,"x_min":0,"x_max":0,"o":"m 88 296 b 297 450 122 381 207 450 b 444 408 338 450 388 436 b 575 368 501 382 546 368 b 701 439 622 368 664 392 l 790 343 b 581 189 756 258 671 189 b 433 229 540 189 490 203 b 303 271 376 257 332 271 b 176 200 256 271 214 247 m 83 583 b 293 738 118 668 203 738 b 440 696 335 738 383 724 b 571 656 497 669 540 656 b 697 726 618 656 660 679 l 786 631 b 576 476 751 546 667 476 b 429 517 535 476 486 490 b 299 558 372 544 329 558 b 172 488 251 558 210 535 "},"≠":{"ha":801,"x_min":0,"x_max":0,"o":"m 97 481 l 97 631 l 428 631 l 510 774 l 640 701 l 600 631 l 704 631 l 704 481 l 515 481 l 458 381 l 704 381 l 704 231 l 374 231 l 292 88 l 161 160 l 201 231 l 97 231 l 97 381 l 286 381 l 343 481 "},"≤":{"ha":799,"x_min":0,"x_max":0,"o":"m 126 478 l 126 639 l 669 922 l 669 740 l 319 558 l 669 376 l 669 194 m 68 0 l 68 150 l 729 150 l 729 0 "},"≥":{"ha":799,"x_min":0,"x_max":0,"o":"m 672 639 l 672 478 l 129 194 l 129 376 l 479 558 l 129 740 l 129 922 m 731 150 l 731 0 l 69 0 l 69 150 "},"◊":{"ha":842,"x_min":0,"x_max":0,"o":"m 338 0 l 85 486 l 338 972 l 504 972 l 757 486 l 504 0 m 421 147 l 585 486 l 421 825 l 257 486 "},"ﬁ":{"ha":794,"x_min":0,"x_max":0,"o":"m 44 553 l 44 700 l 133 700 l 133 708 b 458 983 133 890 258 983 b 660 943 540 983 608 969 l 606 813 b 468 836 567 828 521 836 b 306 707 367 836 306 790 l 306 700 l 699 700 l 699 0 l 526 0 l 526 553 l 306 553 l 306 0 l 133 0 l 133 553 "},"ﬂ":{"ha":865,"x_min":0,"x_max":0,"o":"m 44 553 l 44 700 l 133 700 l 133 736 b 375 983 133 901 225 983 l 760 983 l 760 0 l 588 0 l 588 836 l 385 836 b 306 749 332 836 306 807 l 306 700 l 453 700 l 453 553 l 306 553 l 306 0 l 133 0 l 133 553 "}}}
